<?xml version="1.0" encoding="UTF-8" standalone="no"?>
<svg
   xmlns:dc="http://purl.org/dc/elements/1.1/"
   xmlns:cc="http://creativecommons.org/ns#"
   xmlns:rdf="http://www.w3.org/1999/02/22-rdf-syntax-ns#"
   xmlns:svg="http://www.w3.org/2000/svg"
   xmlns="http://www.w3.org/2000/svg"
   xmlns:sodipodi="http://sodipodi.sourceforge.net/DTD/sodipodi-0.dtd"
   xmlns:inkscape="http://www.inkscape.org/namespaces/inkscape"
   width="49.128399"
   height="49.1231"
   version="1.1"
   id="svg8"
   sodipodi:docname="cip_logo_white_small.svg"
   inkscape:version="0.92.2 5c3e80d, 2017-08-06">
  <metadata
     id="metadata14">
    <rdf:RDF>
      <cc:Work
         rdf:about="">
        <dc:format>image/svg+xml</dc:format>
        <dc:type
           rdf:resource="http://purl.org/dc/dcmitype/StillImage" />
        <dc:title></dc:title>
      </cc:Work>
    </rdf:RDF>
  </metadata>
  <defs
     id="defs12" />
  <sodipodi:namedview
     pagecolor="#ffffff"
     bordercolor="#666666"
     borderopacity="1"
     objecttolerance="10"
     gridtolerance="10"
     guidetolerance="10"
     inkscape:pageopacity="0"
     inkscape:pageshadow="2"
     inkscape:window-width="1920"
     inkscape:window-height="1016"
     id="namedview10"
     showgrid="false"
     inkscape:zoom="5.1405981"
     inkscape:cx="63.249224"
     inkscape:cy="17.779545"
     inkscape:window-x="0"
     inkscape:window-y="27"
     inkscape:window-maximized="1"
     inkscape:current-layer="svg8"
     showguides="true"
     inkscape:guide-bbox="true">
    <sodipodi:guide
       position="247.83258,103.17318"
       orientation="1,0"
       id="guide907"
       inkscape:locked="false" />
    <inkscape:grid
       type="xygrid"
       id="grid3735"
       originx="0.0015"
       originy="-5.3744986" />
  </sodipodi:namedview>
  <g
     id="g6"
     style="fill:#ffffff;fill-opacity:1"
     transform="translate(0.0015,-0.0091)">
    <path
       d="m 24.5355,23.2645 c -0.7366,0 -1.3298,0.5963 -1.3298,1.3302 0,0.7333 0.5932,1.3286 1.3298,1.3286 0.7333,0 1.329,-0.5953 1.329,-1.3286 0,-0.734 -0.5957,-1.3302 -1.329,-1.3302"
       id="path2"
       style="fill:#ffffff;fill-opacity:1"
       inkscape:connector-curvature="0" />
    <path
       d="m 27.888,22.526 c 0,-0.7344 -0.5968,-1.332 -1.3312,-1.332 -0.7333,0 -1.3276,0.5976 -1.3276,1.332 0,0.7323 0.5943,1.3276 1.3276,1.3276 0.7344,0 1.3312,-0.5953 1.3312,-1.3276 m 0,4.1395 c 0,-0.7334 -0.5968,-1.3307 -1.3312,-1.3307 -0.7333,0 -1.3276,0.5973 -1.3276,1.3307 0,0.7344 0.5943,1.3266 1.3276,1.3266 0.7344,0 1.3312,-0.592 1.3312,-1.326 m 0.9604,-3.466 c -0.7317,0 -1.329,0.597 -1.329,1.331 0,0.733 0.5973,1.329 1.329,1.329 0.735,0 1.3308,-0.596 1.3308,-1.328 0,-0.734 -0.596,-1.33 -1.3308,-1.33 m 2.501,-2.089 c -0.7322,0 -1.328,0.599 -1.328,1.332 0,0.733 0.596,1.329 1.328,1.329 0.734,0 1.3323,-0.595 1.3323,-1.328 0,-0.732 -0.5984,-1.331 -1.3322,-1.331 m -0.0192,4.269 c -0.732,0 -1.3298,0.598 -1.3298,1.336 0,0.729 0.598,1.323 1.3298,1.323 0.7337,0 1.3306,-0.594 1.3306,-1.323 0,-0.737 -0.597,-1.335 -1.331,-1.335 m -2.572,4.727 c 0.734,0 1.331,-0.599 1.331,-1.329 0,-0.732 -0.597,-1.331 -1.331,-1.331 -0.733,0 -1.329,0.599 -1.329,1.331 0,0.731 0.595,1.33 1.328,1.33 m -0.743,1.247 c 0,-0.734 -0.598,-1.329 -1.332,-1.329 -0.733,0 -1.329,0.595 -1.329,1.329 0,0.732 0.596,1.33 1.329,1.33 0.734,0 1.332,-0.598 1.332,-1.33 m -3.403,4.155 c 0.735,0 1.332,-0.598 1.332,-1.33 0,-0.734 -0.598,-1.332 -1.332,-1.332 -0.731,0 -1.327,0.598 -1.327,1.332 0,0.733 0.596,1.331 1.327,1.331 m 9.549,-12.308 c -0.734,0 -1.331,0.598 -1.331,1.332 0,0.734 0.597,1.329 1.33,1.329 0.733,0 1.33,-0.596 1.33,-1.33 0,-0.734 -0.597,-1.332 -1.33,-1.332 m -0.138,4.444 c -0.733,0 -1.33,0.598 -1.33,1.328 0,0.734 0.596,1.331 1.329,1.331 0.733,0 1.33,-0.596 1.33,-1.33 0,-0.731 -0.597,-1.328 -1.331,-1.328 m 3.109,-2.002 c -0.733,0 -1.329,0.599 -1.329,1.33 0,0.733 0.596,1.33 1.328,1.33 0.733,0 1.33,-0.597 1.33,-1.33 0,-0.731 -0.597,-1.33 -1.331,-1.33 m 0.971,5.834 c 0,-0.737 -0.597,-1.332 -1.331,-1.332 -0.732,0 -1.329,0.595 -1.329,1.332 0,0.73 0.597,1.326 1.329,1.326 0.734,0 1.331,-0.595 1.331,-1.325 m -3.221,1.992 c 0,-0.733 -0.598,-1.328 -1.331,-1.328 -0.733,0 -1.331,0.595 -1.331,1.329 0,0.733 0.598,1.328 1.33,1.328 0.733,0 1.33,-0.595 1.33,-1.328 m -5.916,1.866 c 0.734,0 1.332,-0.597 1.332,-1.331 0,-0.735 -0.598,-1.332 -1.332,-1.332 -0.732,0 -1.328,0.597 -1.328,1.332 0,0.734 0.596,1.331 1.328,1.331 m -2.081,3.109 c 0.734,0 1.331,-0.594 1.331,-1.328 0,-0.734 -0.598,-1.33 -1.332,-1.33 -0.731,0 -1.328,0.596 -1.328,1.33 0,0.734 0.597,1.329 1.328,1.329 m -2.287,3.302 c 0.736,0 1.333,-0.593 1.333,-1.329 0,-0.731 -0.597,-1.33 -1.333,-1.33 -0.732,0 -1.327,0.599 -1.327,1.331 0,0.736 0.595,1.33 1.327,1.33 m 7.794,-10.7 c 0,-0.733 -0.598,-1.329 -1.332,-1.329 -0.732,0 -1.328,0.596 -1.328,1.329 0,0.732 0.595,1.329 1.327,1.329 0.734,0 1.332,-0.598 1.332,-1.329 m 7.858,-2.971 c -0.733,0 -1.329,0.596 -1.329,1.326 0,0.734 0.595,1.329 1.328,1.329 0.734,0 1.33,-0.595 1.33,-1.329 0,-0.73 -0.596,-1.327 -1.331,-1.327 m -0.494,4.79 c -0.734,0 -1.33,0.597 -1.33,1.333 0,0.729 0.597,1.326 1.331,1.326 0.732,0 1.328,-0.598 1.328,-1.327 0,-0.736 -0.596,-1.333 -1.328,-1.333 m 3.275,2.856 c -0.734,0 -1.329,0.598 -1.329,1.332 0,0.734 0.596,1.329 1.329,1.329 0.734,0 1.332,-0.595 1.332,-1.329 0,-0.733 -0.599,-1.331 -1.332,-1.331 m -4.031,1.87 c -0.732,0 -1.329,0.597 -1.329,1.331 0,0.734 0.597,1.329 1.328,1.329 0.736,0 1.332,-0.595 1.332,-1.329 0,-0.734 -0.596,-1.331 -1.332,-1.331 M 37.536,36.2 c 0,-0.732 -0.597,-1.332 -1.33,-1.332 -0.734,0 -1.33,0.6 -1.33,1.332 0,0.734 0.596,1.3294 1.33,1.3294 0.732,0 1.329,-0.596 1.329,-1.33 m -3.3086,4.871 c 0.7337,0 1.3305,-0.598 1.3305,-1.3296 0,-0.733 -0.597,-1.332 -1.331,-1.332 -0.734,0 -1.33,0.599 -1.33,1.332 0,0.732 0.595,1.33 1.329,1.33 m -4.83,0.5 c 0.736,0 1.332,-0.593 1.332,-1.329 0,-0.733 -0.596,-1.33 -1.332,-1.33 -0.733,0 -1.327,0.598 -1.327,1.331 0,0.736 0.594,1.33 1.326,1.33 m 3.409,-4.786 c 0,-0.733 -0.596,-1.33 -1.329,-1.33 -0.735,0 -1.329,0.597 -1.329,1.331 0,0.733 0.594,1.327 1.329,1.327 0.733,0 1.329,-0.593 1.329,-1.326 m 9.279,3.93 c -0.735,0 -1.33,0.598 -1.33,1.329 0,0.734 0.595,1.332 1.329,1.332 0.732,0 1.331,-0.598 1.331,-1.332 0,-0.732 -0.599,-1.329 -1.332,-1.329 m -5.049,0.963 c -0.733,0 -1.329,0.596 -1.329,1.33 0,0.732 0.596,1.327 1.328,1.327 0.734,0 1.332,-0.595 1.332,-1.327 0,-0.734 -0.598,-1.33 -1.332,-1.33 m -2.178,3.871 c -0.733,0 -1.33,0.596 -1.33,1.331 0,0.732 0.597,1.328 1.33,1.328 0.731,0 1.33,-0.596 1.33,-1.328 0,-0.734 -0.599,-1.33 -1.331,-1.33 m -2.841,-3.328 c -0.734,0 -1.332,0.595 -1.332,1.33 0,0.732 0.598,1.332 1.331,1.332 0.733,0 1.331,-0.599 1.331,-1.331 0,-0.735 -0.598,-1.33 -1.331,-1.33 m -2.306,3.996 c -0.735,0 -1.33,0.596 -1.33,1.332 0,0.732 0.595,1.329 1.33,1.329 0.732,0 1.331,-0.598 1.331,-1.33 0,-0.736 -0.599,-1.332 -1.331,-1.332 M 27,42.555 c -0.733,0 -1.329,0.6 -1.329,1.3302 0,0.733 0.596,1.331 1.329,1.331 0.734,0 1.3306,-0.598 1.3306,-1.331 0,-0.73 -0.5967,-1.331 -1.3306,-1.331 m -2.387,3.919 c -0.734,0 -1.329,0.6 -1.329,1.33 0,0.735 0.596,1.329 1.33,1.329 0.735,0 1.331,-0.594 1.331,-1.33 0,-0.731 -0.596,-1.331 -1.331,-1.331 m -2.551,-3.919 c -0.733,0 -1.329,0.5973 -1.329,1.331 0,0.733 0.595,1.331 1.328,1.331 0.733,0 1.332,-0.598 1.332,-1.33 0,-0.733 -0.599,-1.331 -1.3322,-1.331 m -2.672,3.679 c -0.733,0 -1.3274,0.596 -1.3274,1.332 0,0.7303 0.5948,1.328 1.328,1.328 0.735,0 1.331,-0.5977 1.331,-1.328 0,-0.736 -0.596,-1.3317 -1.331,-1.3317 m -5.011,-0.687 c -0.733,0 -1.328,0.5965 -1.328,1.3335 0,0.731 0.595,1.327 1.3284,1.327 0.7343,0 1.3312,-0.596 1.3312,-1.327 0,-0.737 -0.597,-1.333 -1.3315,-1.333 M 43.5745,30.68 c -0.732,0 -1.3286,0.5974 -1.3286,1.332 0,0.7326 0.596,1.3295 1.328,1.3295 0.736,0 1.331,-0.597 1.331,-1.3296 0,-0.735 -0.595,-1.332 -1.331,-1.332 m 3.327,2.743 c -0.732,0 -1.329,0.597 -1.329,1.329 0,0.736 0.597,1.332 1.328,1.332 0.735,0 1.333,-0.597 1.333,-1.333 0,-0.732 -0.598,-1.329 -1.333,-1.329 m 0.672,-5.05 c -0.734,0 -1.33,0.592 -1.33,1.328 0,0.733 0.596,1.328 1.33,1.328 0.733,0 1.329,-0.595 1.329,-1.328 0,-0.736 -0.596,-1.328 -1.329,-1.328 m -3.696,-2.642 c -0.733,0 -1.328,0.599 -1.328,1.331 0,0.733 0.595,1.329 1.328,1.329 0.734,0 1.332,-0.596 1.332,-1.329 0,-0.732 -0.598,-1.332 -1.332,-1.332 m 3.918,-2.517 c -0.734,0 -1.326,0.598 -1.326,1.333 0,0.733 0.593,1.328 1.327,1.328 0.734,0 1.332,-0.595 1.332,-1.328 0,-0.735 -0.598,-1.333 -1.332,-1.333 m -3.92,-2.402 c -0.731,0 -1.326,0.598 -1.326,1.331 0,0.732 0.595,1.329 1.326,1.329 0.735,0 1.331,-0.597 1.331,-1.329 0,-0.733 -0.596,-1.331 -1.331,-1.331 m 2.352,-1.404 c 0,0.734 0.596,1.33 1.329,1.33 0.733,0 1.33,-0.596 1.33,-1.33 0,-0.733 -0.597,-1.332 -1.331,-1.332 -0.733,0 -1.329,0.599 -1.329,1.332 m -4.009,-2.295 c 0,0.734 0.597,1.329 1.33,1.329 0.735,0 1.331,-0.596 1.331,-1.33 0,-0.735 -0.597,-1.332 -1.332,-1.332 -0.732,0 -1.33,0.597 -1.33,1.331 m 4.682,-1.49 c 0.735,0 1.331,-0.598 1.331,-1.33 0,-0.736 -0.596,-1.332 -1.331,-1.332 -0.732,0 -1.328,0.596 -1.328,1.332 0,0.732 0.596,1.329 1.328,1.329 m -5.213,-3.505 c 0,0.73 0.596,1.327 1.327,1.327 0.736,0 1.332,-0.597 1.332,-1.327 0,-0.736 -0.596,-1.332 -1.332,-1.332 -0.731,0 -1.327,0.596 -1.327,1.331 m 0.39,-3.651 c 0.734,0 1.331,-0.597 1.331,-1.329 0,-0.734 -0.597,-1.33 -1.331,-1.33 -0.734,0 -1.33,0.596 -1.33,1.33 0,0.732 0.595,1.329 1.329,1.329 m -4.392,1.749 c 0,0.733 0.597,1.328 1.329,1.328 0.731,0 1.33,-0.596 1.33,-1.329 0,-0.733 -0.599,-1.332 -1.331,-1.332 -0.733,0 -1.33,0.599 -1.33,1.332 m -1.506,1.412 c -0.732,0 -1.328,0.596 -1.328,1.331 0,0.731 0.596,1.33 1.327,1.33 0.735,0 1.333,-0.599 1.333,-1.33 0,-0.735 -0.598,-1.331 -1.333,-1.331 m -3.968,4.039 c 0,0.733 0.596,1.33 1.33,1.33 0.734,0 1.331,-0.597 1.331,-1.33 0,-0.732 -0.597,-1.331 -1.331,-1.331 -0.734,0 -1.329,0.599 -1.329,1.331 m -0.716,-4.625 c -0.734,0 -1.329,0.595 -1.329,1.331 0,0.734 0.595,1.326 1.328,1.326 0.734,0 1.331,-0.593 1.331,-1.327 0,-0.736 -0.597,-1.331 -1.331,-1.331 M 29.38,7.6 c -0.7326,0 -1.33,0.599 -1.33,1.331 0,0.734 0.5974,1.33 1.3296,1.33 0.734,0 1.329,-0.596 1.329,-1.33 0,-0.732 -0.595,-1.331 -1.329,-1.331 m -2.484,3.078 c -0.733,0 -1.33,0.596 -1.33,1.332 0,0.733 0.597,1.33 1.33,1.33 0.732,0 1.33,-0.597 1.33,-1.3298 0,-0.736 -0.599,-1.332 -1.33,-1.332 m -4.732,0.029 c -0.734,0 -1.329,0.5974 -1.329,1.333 0,0.7333 0.595,1.329 1.329,1.329 0.733,0 1.332,-0.5957 1.332,-1.329 0,-0.735 -0.599,-1.3327 -1.332,-1.3327 m -2.002,3.122 c -0.733,0 -1.328,0.598 -1.328,1.332 0,0.7334 0.596,1.327 1.328,1.327 0.733,0 1.33,-0.5936 1.33,-1.327 0,-0.734 -0.597,-1.332 -1.33,-1.332 m 0.902,4.0056 c 0,0.731 0.596,1.327 1.329,1.327 0.733,0 1.331,-0.596 1.331,-1.327 0,-0.736 -0.598,-1.333 -1.331,-1.333 -0.734,0 -1.33,0.597 -1.33,1.332 m -4.316,0.261 c 0,0.734 0.597,1.332 1.33,1.332 0.734,0 1.33,-0.598 1.33,-1.332 0,-0.733 -0.595,-1.331 -1.329,-1.331 -0.734,0 -1.331,0.598 -1.331,1.331 m -1.633,0.757 c -0.733,0 -1.329,0.598 -1.329,1.33 0,0.734 0.596,1.33 1.329,1.33 0.734,0 1.33,-0.596 1.33,-1.33 0,-0.732 -0.596,-1.33 -1.33,-1.33 M 12,23.577 c 0.7337,0 1.3326,-0.596 1.3326,-1.328 0,-0.734 -0.599,-1.332 -1.332,-1.332 -0.7337,0 -1.329,0.5983 -1.329,1.332 0,0.732 0.5953,1.328 1.329,1.328 m -0.992,-5.908 c 0,0.7292 0.596,1.326 1.33,1.326 0.7342,0 1.329,-0.5968 1.329,-1.326 0,-0.736 -0.595,-1.333 -1.3294,-1.333 -0.734,0 -1.3296,0.597 -1.3296,1.333 m -3.464,2.067 c 0,0.733 0.596,1.328 1.327,1.328 0.735,0 1.3317,-0.595 1.3317,-1.328 0,-0.7348 -0.597,-1.3328 -1.332,-1.3328 -0.731,0 -1.3274,0.598 -1.3274,1.333 m -2.315,3.709 c 0.734,0 1.332,-0.597 1.332,-1.328 0,-0.736 -0.598,-1.331 -1.333,-1.331 -0.732,0 -1.328,0.595 -1.328,1.331 0,0.731 0.596,1.328 1.328,1.328 m -3.677,-2.717 c 0.732,0 1.331,-0.598 1.331,-1.33 0,-0.736 -0.599,-1.33 -1.332,-1.33 -0.732,0 -1.328,0.594 -1.328,1.33 0,0.732 0.596,1.33 1.328,1.33 m 4.024,-2.275 c 0.735,0 1.331,-0.595 1.331,-1.326 0,-0.736 -0.596,-1.334 -1.331,-1.334 -0.733,0 -1.328,0.598 -1.328,1.334 0,0.731 0.595,1.327 1.328,1.327 M 2.24,12.943 c -0.7325,0 -1.329,0.595 -1.329,1.332 0,0.733 0.597,1.328 1.329,1.328 0.732,0 1.332,-0.595 1.332,-1.328 0,-0.737 -0.6,-1.332 -1.332,-1.332 m 3.912,0.509 c 0.734,0 1.331,-0.595 1.331,-1.3285 0,-0.7353 -0.597,-1.3315 -1.331,-1.3315 -0.7318,0 -1.327,0.597 -1.327,1.332 0,0.734 0.5952,1.329 1.327,1.329 m 3.223,0.133 c -0.733,0 -1.329,0.6 -1.329,1.333 0,0.732 0.596,1.331 1.329,1.331 0.735,0 1.3302,-0.598 1.3302,-1.33 0,-0.733 -0.5957,-1.333 -1.331,-1.333 m 2.2656,-0.638 c 0,0.7338 0.596,1.33 1.33,1.33 0.733,0 1.331,-0.596 1.331,-1.3294 0,-0.7334 -0.598,-1.332 -1.331,-1.332 -0.734,0 -1.3296,0.5986 -1.3296,1.332 m 2.6016,2.726 c 0,0.731 0.596,1.33 1.328,1.33 0.735,0 1.3326,-0.599 1.3326,-1.33 0,-0.733 -0.5972,-1.331 -1.332,-1.331 -0.7323,0 -1.328,0.5984 -1.328,1.331 M 8.712,25.856 c 0.7333,0 1.3286,-0.5958 1.3286,-1.3265 0,-0.7366 -0.595,-1.3324 -1.3286,-1.3324 -0.735,0 -1.3293,0.596 -1.3293,1.333 0,0.731 0.5944,1.327 1.3293,1.327 m 15.909,-12.18 c -0.734,0 -1.3286,0.597 -1.3286,1.333 0,0.733 0.5946,1.329 1.3285,1.329 0.733,0 1.332,-0.595 1.332,-1.328 0,-0.736 -0.599,-1.332 -1.333,-1.332 m 9.6,-5.624 c -0.733,0 -1.33,0.598 -1.33,1.332 0,0.734 0.597,1.328 1.33,1.328 0.732,0 1.33,-0.594 1.33,-1.328 0,-0.734 -0.598,-1.331 -1.33,-1.331 m 1.493,-1.944 c 0,0.734 0.595,1.33 1.328,1.33 0.732,0 1.33,-0.596 1.33,-1.33 0,-0.733 -0.599,-1.331 -1.331,-1.331 -0.733,0 -1.328,0.599 -1.328,1.332 m -3.682,0.807 c 0.734,0 1.331,-0.596 1.331,-1.329 0,-0.734 -0.597,-1.332 -1.331,-1.332 -0.733,0 -1.329,0.598 -1.329,1.332 0,0.733 0.596,1.329 1.33,1.329 m 2.837,-3.331 c 0.734,0 1.33,-0.596 1.33,-1.327 0,-0.735 -0.596,-1.333 -1.33,-1.333 -0.733,0 -1.33,0.598 -1.33,1.334 0,0.731 0.597,1.327 1.33,1.327 m -5.146,-0.651 c 0.734,0 1.328,-0.595 1.328,-1.329 0.002,-0.738 -0.592,-1.333 -1.326,-1.333 -0.736,0 -1.331,0.595 -1.331,1.332 0,0.734 0.595,1.33 1.331,1.33 m -5.122,-0.269 c 0.734,0 1.331,-0.596 1.331,-1.328 0,-0.734 -0.597,-1.333 -1.332,-1.333 -0.732,0 -1.328,0.599 -1.328,1.333 0,0.732 0.597,1.328 1.329,1.328 m -5.217,0.256 c 0.735,0 1.331,-0.599 1.331,-1.329 0,-0.736 -0.597,-1.332 -1.331,-1.332 -0.733,0 -1.329,0.596 -1.329,1.333 0,0.731 0.597,1.33 1.33,1.33 m -5.008,0.677 c 0.735,0 1.331,-0.596 1.331,-1.329 0,-0.734 -0.596,-1.332 -1.332,-1.332 -0.734,0 -1.328,0.598 -1.328,1.332 0,0.733 0.594,1.329 1.328,1.329 m 7.652,3.004 c 0.734,0 1.33,-0.599 1.33,-1.33 0,-0.733 -0.597,-1.331 -1.331,-1.331 -0.732,0 -1.328,0.599 -1.328,1.331 0,0.731 0.596,1.33 1.328,1.33 m -4.93,0.326 c 0.734,0 1.331,-0.595 1.331,-1.329 0,-0.733 -0.598,-1.332 -1.332,-1.332 -0.734,0 -1.329,0.599 -1.329,1.333 0,0.734 0.595,1.329 1.329,1.329 m -2.182,1.142 c -0.731,0 -1.329,0.596 -1.329,1.33 0,0.734 0.597,1.331 1.328,1.331 0.734,0 1.331,-0.597 1.331,-1.331 0,-0.734 -0.597,-1.329 -1.332,-1.329 M 10.11,11.56 c 0.733,0 1.331,-0.5964 1.331,-1.3297 0,-0.733 -0.598,-1.3318 -1.331,-1.3318 -0.7332,0 -1.3285,0.5983 -1.3285,1.3317 0,0.7334 0.5953,1.33 1.3287,1.33 M 7.299,8.449 c 0.7333,0 1.3312,-0.5963 1.3312,-1.33 0,-0.7335 -0.598,-1.3315 -1.3312,-1.3315 -0.7334,0 -1.3303,0.598 -1.3303,1.3314 0,0.733 0.597,1.33 1.3303,1.33 m 4.8197,-0.991 c 0.7334,0 1.3313,-0.597 1.3313,-1.331 0,-0.733 -0.598,-1.329 -1.3313,-1.329 -0.7338,0 -1.3296,0.596 -1.3296,1.328 0,0.734 0.596,1.33 1.33,1.33 m 4.199,4.9 c 0,0.732 0.597,1.327 1.329,1.327 0.735,0 1.331,-0.595 1.331,-1.328 0,-0.735 -0.596,-1.333 -1.33,-1.333 -0.732,0 -1.329,0.598 -1.329,1.332 m 3.389,-4.771 c -0.732,0 -1.327,0.597 -1.327,1.33 0,0.734 0.595,1.331 1.327,1.331 0.732,0 1.331,-0.597 1.331,-1.331 0,-0.733 -0.599,-1.33 -1.331,-1.33 m 7.291,-0.986 c 0.733,0 1.331,-0.597 1.331,-1.328 0,-0.736 -0.598,-1.334 -1.33,-1.334 -0.733,0 -1.33,0.598 -1.33,1.334 0,0.731 0.597,1.328 1.33,1.328 m -2.388,0.782 c -0.732,0 -1.327,0.597 -1.327,1.332 0,0.734 0.595,1.329 1.328,1.329 0.735,0 1.332,-0.595 1.332,-1.329 0,-0.735 -0.597,-1.332 -1.332,-1.332 m 7.735,10.702 c 0,-0.735 -0.596,-1.33 -1.33,-1.33 -0.732,0 -1.329,0.595 -1.329,1.33 0,0.734 0.597,1.33 1.329,1.33 0.734,0 1.331,-0.597 1.331,-1.331 m -3.557,0.963 c -0.731,0 -1.327,0.596 -1.327,1.331 0,0.731 0.596,1.328 1.327,1.328 0.734,0 1.333,-0.597 1.333,-1.328 0,-0.735 -0.599,-1.331 -1.333,-1.331 m -3.414,-1.268 c 0,0.732 0.597,1.328 1.329,1.328 0.735,0 1.333,-0.597 1.333,-1.329 0,-0.733 -0.597,-1.332 -1.332,-1.332 -0.732,0 -1.328,0.599 -1.328,1.332 m -0.78,1.186 c -0.732,0 -1.328,0.595 -1.328,1.328 0,0.733 0.597,1.332 1.328,1.332 0.735,0 1.331,-0.599 1.331,-1.332 0,-0.733 -0.596,-1.329 -1.331,-1.329 m -3.418,3.566 c 0,0.732 0.596,1.328 1.33,1.328 0.733,0 1.331,-0.596 1.331,-1.328 0,-0.735 -0.598,-1.332 -1.33,-1.332 -0.734,0 -1.33,0.597 -1.33,1.332 m -0.799,-3.454 c -0.73,0 -1.326,0.596 -1.326,1.331 0,0.731 0.596,1.33 1.327,1.33 0.736,0 1.333,-0.599 1.333,-1.33 0,-0.735 -0.597,-1.332 -1.333,-1.332 m -0.119,6.81 c 0.731,0 1.333,-0.595 1.333,-1.329 0,-0.734 -0.602,-1.332 -1.333,-1.332 -0.735,0 -1.33,0.598 -1.33,1.331 0,0.734 0.596,1.329 1.331,1.329 m -2.485,-2.073 c 0.732,0 1.328,-0.597 1.328,-1.329 0,-0.734 -0.596,-1.333 -1.328,-1.333 -0.733,0 -1.329,0.598 -1.329,1.332 0,0.732 0.596,1.329 1.329,1.329 m 0.01,4.263 c 0.734,0 1.333,-0.598 1.333,-1.324 0,-0.738 -0.598,-1.333 -1.332,-1.333 -0.731,0 -1.329,0.595 -1.329,1.333 0,0.727 0.597,1.324 1.328,1.324 m -2.811,-2.219 c 0.733,0 1.331,-0.598 1.331,-1.331 0,-0.735 -0.598,-1.33 -1.331,-1.33 -0.734,0 -1.33,0.595 -1.33,1.33 0,0.733 0.596,1.331 1.33,1.331 m 0.214,4.478 c 0.732,0 1.329,-0.596 1.329,-1.33 0,-0.733 -0.597,-1.331 -1.329,-1.331 -0.736,0 -1.33,0.598 -1.33,1.331 0,0.734 0.595,1.33 1.331,1.33 m -3.183,-2.033 c 0.732,0 1.33,-0.6 1.33,-1.333 0,-0.732 -0.598,-1.331 -1.33,-1.331 -0.733,0 -1.329,0.599 -1.329,1.33 0,0.733 0.596,1.333 1.329,1.333 m 0.369,4.556 c 0.735,0 1.331,-0.593 1.331,-1.325 0,-0.735 -0.596,-1.333 -1.331,-1.333 -0.732,0 -1.33,0.598 -1.33,1.333 0,0.732 0.598,1.326 1.33,1.326 m -2.997,2.72 c 0.733,0 1.331,-0.598 1.331,-1.33 0,-0.733 -0.598,-1.334 -1.331,-1.334 -0.733,0 -1.329,0.601 -1.329,1.334 0,0.732 0.597,1.33 1.33,1.33 m -2.498,-3.53 c 0,-0.736 -0.596,-1.333 -1.33,-1.333 -0.732,0 -1.329,0.598 -1.329,1.334 0,0.732 0.597,1.33 1.329,1.33 0.734,0 1.331,-0.597 1.331,-1.329 m -3.99,-2.31 c 0,-0.737 -0.598,-1.329 -1.332,-1.329 -0.734,0 -1.329,0.592 -1.329,1.329 0,0.731 0.596,1.326 1.33,1.326 0.734,0 1.332,-0.595 1.332,-1.326 m 2.336,-1.318 c 0.735,0 1.333,-0.598 1.333,-1.331 0,-0.731 -0.598,-1.33 -1.332,-1.33 -0.732,0 -1.328,0.599 -1.328,1.331 0,0.733 0.596,1.331 1.328,1.331 M 1.328,25.86 c 0.734,0 1.332,-0.596 1.332,-1.326 0,-0.734 -0.599,-1.3327 -1.333,-1.3327 -0.73,0 -1.3285,0.5985 -1.3285,1.3325 0,0.7304 0.5984,1.3263 1.3286,1.3263 m 7.554,4.862 c 0.734,0 1.332,-0.594 1.332,-1.328 0,-0.736 -0.598,-1.332 -1.333,-1.332 -0.732,0 -1.328,0.597 -1.328,1.333 0,0.735 0.596,1.329 1.328,1.329 M 2.228,33.42 c -0.733,0 -1.328,0.598 -1.328,1.3297 0,0.7356 0.595,1.331 1.328,1.331 0.7347,0 1.3316,-0.5954 1.3316,-1.331 0,-0.7316 -0.597,-1.3295 -1.3317,-1.3295 m 5.216,3.6474 c 0,-0.7333 -0.596,-1.3296 -1.332,-1.3296 -0.732,0 -1.328,0.596 -1.328,1.3294 0,0.735 0.596,1.33 1.328,1.33 0.736,0 1.332,-0.595 1.332,-1.33 m 16.397,-10.401 c 0,-0.733 -0.598,-1.33 -1.332,-1.33 -0.734,0 -1.33,0.5975 -1.33,1.331 0,0.7343 0.596,1.3265 1.329,1.3265 0.733,0 1.331,-0.592 1.331,-1.327 m 0.755,3.503 c 0.733,0 1.331,-0.595 1.331,-1.331 0,-0.731 -0.598,-1.33 -1.331,-1.33 -0.734,0 -1.33,0.599 -1.33,1.33 0,0.736 0.596,1.331 1.33,1.331 m -0.877,1.184 c 0,-0.734 -0.598,-1.329 -1.331,-1.329 -0.735,0 -1.33,0.595 -1.33,1.329 0,0.732 0.595,1.33 1.33,1.33 0.733,0 1.331,-0.598 1.331,-1.33 m -3.539,3.982 c 0.734,0 1.33,-0.598 1.33,-1.331 0,-0.736 -0.597,-1.332 -1.331,-1.332 -0.735,0 -1.329,0.596 -1.329,1.332 0,0.733 0.594,1.331 1.328,1.331 m 2.012,3.125 c 0.733,0 1.33,-0.597 1.33,-1.328 0,-0.737 -0.597,-1.335 -1.331,-1.335 -0.733,0 -1.328,0.598 -1.328,1.334 0,0.732 0.596,1.328 1.328,1.328 m -2.466,3.098 c 0.734,0 1.331,-0.595 1.331,-1.329 0,-0.735 -0.597,-1.333 -1.331,-1.333 -0.734,0 -1.33,0.597 -1.33,1.332 0,0.734 0.595,1.329 1.329,1.329 m -4.841,-0.503 c 0.734,0 1.331,-0.598 1.331,-1.33 0,-0.737 -0.598,-1.333 -1.332,-1.333 -0.733,0 -1.33,0.597 -1.33,1.333 0,0.732 0.597,1.33 1.33,1.33 M 12.99,37.52 c 0.733,0 1.3304,-0.598 1.3304,-1.3305 0,-0.7335 -0.597,-1.331 -1.3304,-1.331 -0.734,0 -1.329,0.5975 -1.329,1.3308 0,0.7326 0.5947,1.3306 1.3286,1.3306 m 4.652,0.578 c 0.7326,0 1.3285,-0.596 1.3285,-1.329 0,-0.731 -0.596,-1.33 -1.328,-1.33 -0.734,0 -1.331,0.599 -1.331,1.329 0,0.734 0.597,1.329 1.331,1.329 m -0.727,-4.64 c 0,-0.734 -0.599,-1.331 -1.332,-1.331 -0.732,0 -1.329,0.597 -1.329,1.331 0,0.734 0.597,1.329 1.329,1.329 0.734,0 1.332,-0.595 1.332,-1.33 m 1.141,-1.084 c 0.735,0 1.332,-0.596 1.332,-1.331 0,-0.733 -0.597,-1.33 -1.331,-1.33 -0.732,0 -1.328,0.597 -1.328,1.33 0,0.735 0.596,1.331 1.328,1.331 m 2.322,-2.29 c 0.735,0 1.331,-0.598 1.331,-1.33 0,-0.733 -0.596,-1.329 -1.331,-1.329 -0.731,0 -1.328,0.596 -1.328,1.329 0,0.732 0.597,1.33 1.328,1.33 m -8.95,8.848 c 0,-0.734 -0.599,-1.33 -1.332,-1.33 -0.733,0 -1.328,0.596 -1.328,1.33 0,0.732 0.595,1.33 1.328,1.33 0.733,0 1.332,-0.598 1.332,-1.33 m 0.648,2.741 c -0.731,0 -1.33,0.595 -1.33,1.33 0,0.732 0.599,1.329 1.33,1.329 0.734,0 1.332,-0.598 1.332,-1.329 0,-0.734 -0.598,-1.33 -1.332,-1.33 m -4.814,-0.968 c -0.735,0 -1.331,0.596 -1.331,1.328 0,0.737 0.596,1.334 1.331,1.334 0.732,0 1.33,-0.597 1.33,-1.334 0,-0.732 -0.598,-1.328 -1.329,-1.328 m 9.819,1.514 c -0.733,0 -1.329,0.595 -1.329,1.329 0,0.731 0.596,1.329 1.329,1.329 0.735,0 1.332,-0.598 1.332,-1.33 0,-0.735 -0.597,-1.33 -1.332,-1.33 m 11.886,-28.374 c -0.731,0 -1.329,0.597 -1.329,1.331 0,0.733 0.598,1.327 1.329,1.327 0.734,0 1.331,-0.595 1.331,-1.328 0,-0.734 -0.597,-1.331 -1.331,-1.331 m 9.416,1.108 c 0,0.734 0.596,1.329 1.33,1.329 0.735,0 1.33,-0.595 1.33,-1.329 0,-0.734 -0.594,-1.333 -1.329,-1.333 -0.734,0 -1.33,0.599 -1.33,1.333 m -1.616,1.398 c -0.733,0 -1.33,0.599 -1.33,1.332 0,0.733 0.597,1.328 1.33,1.328 0.733,0 1.33,-0.596 1.33,-1.329 0,-0.733 -0.597,-1.332 -1.33,-1.332 m 3.444,4.712 c 0.735,0 1.331,-0.595 1.331,-1.329 0,-0.734 -0.597,-1.332 -1.331,-1.332 -0.733,0 -1.328,0.597 -1.328,1.331 0,0.734 0.596,1.329 1.329,1.329 m 0.209,2.134 c -0.733,0 -1.329,0.598 -1.329,1.333 0,0.732 0.597,1.328 1.33,1.328 0.734,0 1.33,-0.596 1.33,-1.329 0,-0.735 -0.596,-1.333 -1.33,-1.333 m -4.671,-0.965 c 0,0.731 0.596,1.326 1.331,1.326 0.732,0 1.328,-0.595 1.328,-1.326 0,-0.736 -0.596,-1.332 -1.329,-1.332 -0.735,0 -1.331,0.596 -1.331,1.332 m -1.748,-0.724 c 0.735,0 1.331,-0.597 1.331,-1.328 0,-0.736 -0.596,-1.3305 -1.331,-1.3305 -0.733,0 -1.329,0.5946 -1.329,1.33 0,0.7316 0.596,1.328 1.329,1.328"
       id="path4"
       inkscape:connector-curvature="0"
       sodipodi:nodetypes="csssccsssccsssccsssccsssccsssccsssccsssccsssccsssccsssccsssccsssccsssccsssccsssccsssccsssccsssccsssccsssccsssccsssccsssccsssccsssccsssccsssccsssccsssccsssccsssccsssccsssccsssccsssccsssccsssccsssccsssccsssccsssccsssccsssccsssccsssccsssccsssccsssccsssccsssccsssccsssccsssccsssccsssccsssccsssccsssccsssccsssccsssccsssccsssccsssccsssccsssccsssccsssccsssccsssccsssccsssccssscccssccsssccsssccsssccsssccsssccsssccsssccsssccsssccsssccsssccsssccsssccsssccsssccsssccsssccsssccsssccsssccsssccsssccsssccsssccsssccsssccsssccsssccsssccsssccsssccsssccsssccsssccsssccsssccsssccsssccsssccsssccsssccsssccsssccsssccsssccsssccsssccsssccsssccsssccsssccsssccsssccsssccsssccsssccsssc"
       style="fill:#ffffff;fill-opacity:1" />
  </g>
</svg>
