<?xml version="1.0" encoding="UTF-8" standalone="no"?>
<svg
   xmlns:dc="http://purl.org/dc/elements/1.1/"
   xmlns:cc="http://creativecommons.org/ns#"
   xmlns:rdf="http://www.w3.org/1999/02/22-rdf-syntax-ns#"
   xmlns:svg="http://www.w3.org/2000/svg"
   xmlns="http://www.w3.org/2000/svg"
   xmlns:sodipodi="http://sodipodi.sourceforge.net/DTD/sodipodi-0.dtd"
   xmlns:inkscape="http://www.inkscape.org/namespaces/inkscape"
   width="242.7733"
   height="54.5067"
   version="1.1"
   id="svg8"
   sodipodi:docname="cip_logo_white.svg"
   inkscape:version="0.92.2 5c3e80d, 2017-08-06">
  <metadata
     id="metadata14">
    <rdf:RDF>
      <cc:Work
         rdf:about="">
        <dc:format>image/svg+xml</dc:format>
        <dc:type
           rdf:resource="http://purl.org/dc/dcmitype/StillImage" />
        <dc:title></dc:title>
      </cc:Work>
    </rdf:RDF>
  </metadata>
  <defs
     id="defs12" />
  <sodipodi:namedview
     pagecolor="#ffffff"
     bordercolor="#666666"
     borderopacity="1"
     objecttolerance="10"
     gridtolerance="10"
     guidetolerance="10"
     inkscape:pageopacity="0"
     inkscape:pageshadow="2"
     inkscape:window-width="1920"
     inkscape:window-height="1016"
     id="namedview10"
     showgrid="false"
     inkscape:zoom="3.6349518"
     inkscape:cx="127.08728"
     inkscape:cy="35.163472"
     inkscape:window-x="0"
     inkscape:window-y="27"
     inkscape:window-maximized="1"
     inkscape:current-layer="svg8"
     showguides="true"
     inkscape:guide-bbox="true">
    <sodipodi:guide
       position="247.83108,108.54768"
       orientation="1,0"
       id="guide907"
       inkscape:locked="false" />
  </sodipodi:namedview>
  <g
     id="g6"
     fill="#34373e"
     style="fill:#ffffff;fill-opacity:1">
    <path
       d="M24.5355 23.2645c-.7366 0-1.3298.5963-1.3298 1.3302 0 .7333.5932 1.3286 1.3298 1.3286.7333 0 1.329-.5953 1.329-1.3286 0-.734-.5957-1.3302-1.329-1.3302"
       id="path2"
       style="fill:#ffffff;fill-opacity:1" />
    <path
       d="m 27.888,22.526 c 0,-0.7344 -0.5968,-1.332 -1.3312,-1.332 -0.7333,0 -1.3276,0.5976 -1.3276,1.332 0,0.7323 0.5943,1.3276 1.3276,1.3276 0.7344,0 1.3312,-0.5953 1.3312,-1.3276 m 0,4.1395 c 0,-0.7334 -0.5968,-1.3307 -1.3312,-1.3307 -0.7333,0 -1.3276,0.5973 -1.3276,1.3307 0,0.7344 0.5943,1.3266 1.3276,1.3266 0.7344,0 1.3312,-0.592 1.3312,-1.326 m 0.9604,-3.466 c -0.7317,0 -1.329,0.597 -1.329,1.331 0,0.733 0.5973,1.329 1.329,1.329 0.735,0 1.3308,-0.596 1.3308,-1.328 0,-0.734 -0.596,-1.33 -1.3308,-1.33 m 2.501,-2.089 c -0.7322,0 -1.328,0.599 -1.328,1.332 0,0.733 0.596,1.329 1.328,1.329 0.734,0 1.3323,-0.595 1.3323,-1.328 0,-0.732 -0.5984,-1.331 -1.3322,-1.331 m -0.0192,4.269 c -0.732,0 -1.3298,0.598 -1.3298,1.336 0,0.729 0.598,1.323 1.3298,1.323 0.7337,0 1.3306,-0.594 1.3306,-1.323 0,-0.737 -0.597,-1.335 -1.331,-1.335 m -2.572,4.727 c 0.734,0 1.331,-0.599 1.331,-1.329 0,-0.732 -0.597,-1.331 -1.331,-1.331 -0.733,0 -1.329,0.599 -1.329,1.331 0,0.731 0.595,1.33 1.328,1.33 m -0.743,1.247 c 0,-0.734 -0.598,-1.329 -1.332,-1.329 -0.733,0 -1.329,0.595 -1.329,1.329 0,0.732 0.596,1.33 1.329,1.33 0.734,0 1.332,-0.598 1.332,-1.33 m -3.403,4.155 c 0.735,0 1.332,-0.598 1.332,-1.33 0,-0.734 -0.598,-1.332 -1.332,-1.332 -0.731,0 -1.327,0.598 -1.327,1.332 0,0.733 0.596,1.331 1.327,1.331 m 9.549,-12.308 c -0.734,0 -1.331,0.598 -1.331,1.332 0,0.734 0.597,1.329 1.33,1.329 0.733,0 1.33,-0.596 1.33,-1.33 0,-0.734 -0.597,-1.332 -1.33,-1.332 m -0.138,4.444 c -0.733,0 -1.33,0.598 -1.33,1.328 0,0.734 0.596,1.331 1.329,1.331 0.733,0 1.33,-0.596 1.33,-1.33 0,-0.731 -0.597,-1.328 -1.331,-1.328 m 3.109,-2.002 c -0.733,0 -1.329,0.599 -1.329,1.33 0,0.733 0.596,1.33 1.328,1.33 0.733,0 1.33,-0.597 1.33,-1.33 0,-0.731 -0.597,-1.33 -1.331,-1.33 m 0.971,5.834 c 0,-0.737 -0.597,-1.332 -1.331,-1.332 -0.732,0 -1.329,0.595 -1.329,1.332 0,0.73 0.597,1.326 1.329,1.326 0.734,0 1.331,-0.595 1.331,-1.325 m -3.221,1.992 c 0,-0.733 -0.598,-1.328 -1.331,-1.328 -0.733,0 -1.331,0.595 -1.331,1.329 0,0.733 0.598,1.328 1.33,1.328 0.733,0 1.33,-0.595 1.33,-1.328 m -5.916,1.866 c 0.734,0 1.332,-0.597 1.332,-1.331 0,-0.735 -0.598,-1.332 -1.332,-1.332 -0.732,0 -1.328,0.597 -1.328,1.332 0,0.734 0.596,1.331 1.328,1.331 m -2.081,3.109 c 0.734,0 1.331,-0.594 1.331,-1.328 0,-0.734 -0.598,-1.33 -1.332,-1.33 -0.731,0 -1.328,0.596 -1.328,1.33 0,0.734 0.597,1.329 1.328,1.329 m -2.287,3.302 c 0.736,0 1.333,-0.593 1.333,-1.329 0,-0.731 -0.597,-1.33 -1.333,-1.33 -0.732,0 -1.327,0.599 -1.327,1.331 0,0.736 0.595,1.33 1.327,1.33 m 7.794,-10.7 c 0,-0.733 -0.598,-1.329 -1.332,-1.329 -0.732,0 -1.328,0.596 -1.328,1.329 0,0.732 0.595,1.329 1.327,1.329 0.734,0 1.332,-0.598 1.332,-1.329 m 7.858,-2.971 c -0.733,0 -1.329,0.596 -1.329,1.326 0,0.734 0.595,1.329 1.328,1.329 0.734,0 1.33,-0.595 1.33,-1.329 0,-0.73 -0.596,-1.327 -1.331,-1.327 m -0.494,4.79 c -0.734,0 -1.33,0.597 -1.33,1.333 0,0.729 0.597,1.326 1.331,1.326 0.732,0 1.328,-0.598 1.328,-1.327 0,-0.736 -0.596,-1.333 -1.328,-1.333 m 3.275,2.856 c -0.734,0 -1.329,0.598 -1.329,1.332 0,0.734 0.596,1.329 1.329,1.329 0.734,0 1.332,-0.595 1.332,-1.329 0,-0.733 -0.599,-1.331 -1.332,-1.331 m -4.031,1.87 c -0.732,0 -1.329,0.597 -1.329,1.331 0,0.734 0.597,1.329 1.328,1.329 0.736,0 1.332,-0.595 1.332,-1.329 0,-0.734 -0.596,-1.331 -1.332,-1.331 M 37.536,36.2 c 0,-0.732 -0.597,-1.332 -1.33,-1.332 -0.734,0 -1.33,0.6 -1.33,1.332 0,0.734 0.596,1.3294 1.33,1.3294 0.732,0 1.329,-0.596 1.329,-1.33 m -3.3086,4.871 c 0.7337,0 1.3305,-0.598 1.3305,-1.3296 0,-0.733 -0.597,-1.332 -1.331,-1.332 -0.734,0 -1.33,0.599 -1.33,1.332 0,0.732 0.595,1.33 1.329,1.33 m -4.83,0.5 c 0.736,0 1.332,-0.593 1.332,-1.329 0,-0.733 -0.596,-1.33 -1.332,-1.33 -0.733,0 -1.327,0.598 -1.327,1.331 0,0.736 0.594,1.33 1.326,1.33 m 3.409,-4.786 c 0,-0.733 -0.596,-1.33 -1.329,-1.33 -0.735,0 -1.329,0.597 -1.329,1.331 0,0.733 0.594,1.327 1.329,1.327 0.733,0 1.329,-0.593 1.329,-1.326 m 9.279,3.93 c -0.735,0 -1.33,0.598 -1.33,1.329 0,0.734 0.595,1.332 1.329,1.332 0.732,0 1.331,-0.598 1.331,-1.332 0,-0.732 -0.599,-1.329 -1.332,-1.329 m -5.049,0.963 c -0.733,0 -1.329,0.596 -1.329,1.33 0,0.732 0.596,1.327 1.328,1.327 0.734,0 1.332,-0.595 1.332,-1.327 0,-0.734 -0.598,-1.33 -1.332,-1.33 m -2.178,3.871 c -0.733,0 -1.33,0.596 -1.33,1.331 0,0.732 0.597,1.328 1.33,1.328 0.731,0 1.33,-0.596 1.33,-1.328 0,-0.734 -0.599,-1.33 -1.331,-1.33 m -2.841,-3.328 c -0.734,0 -1.332,0.595 -1.332,1.33 0,0.732 0.598,1.332 1.331,1.332 0.733,0 1.331,-0.599 1.331,-1.331 0,-0.735 -0.598,-1.33 -1.331,-1.33 m -2.306,3.996 c -0.735,0 -1.33,0.596 -1.33,1.332 0,0.732 0.595,1.329 1.33,1.329 0.732,0 1.331,-0.598 1.331,-1.33 0,-0.736 -0.599,-1.332 -1.331,-1.332 M 27,42.555 c -0.733,0 -1.329,0.6 -1.329,1.3302 0,0.733 0.596,1.331 1.329,1.331 0.734,0 1.3306,-0.598 1.3306,-1.331 0,-0.73 -0.5967,-1.331 -1.3306,-1.331 m -2.387,3.919 c -0.734,0 -1.329,0.6 -1.329,1.33 0,0.735 0.596,1.329 1.33,1.329 0.735,0 1.331,-0.594 1.331,-1.33 0,-0.731 -0.596,-1.331 -1.331,-1.331 m -2.551,-3.919 c -0.733,0 -1.329,0.5973 -1.329,1.331 0,0.733 0.595,1.331 1.328,1.331 0.733,0 1.332,-0.598 1.332,-1.33 0,-0.733 -0.599,-1.331 -1.3322,-1.331 m -2.672,3.679 c -0.733,0 -1.3274,0.596 -1.3274,1.332 0,0.7303 0.5948,1.328 1.328,1.328 0.735,0 1.331,-0.5977 1.331,-1.328 0,-0.736 -0.596,-1.3317 -1.331,-1.3317 m -5.011,-0.687 c -0.733,0 -1.328,0.5965 -1.328,1.3335 0,0.731 0.595,1.327 1.3284,1.327 0.7343,0 1.3312,-0.596 1.3312,-1.327 0,-0.737 -0.597,-1.333 -1.3315,-1.333 M 43.5745,30.68 c -0.732,0 -1.3286,0.5974 -1.3286,1.332 0,0.7326 0.596,1.3295 1.328,1.3295 0.736,0 1.331,-0.597 1.331,-1.3296 0,-0.735 -0.595,-1.332 -1.331,-1.332 m 3.327,2.743 c -0.732,0 -1.329,0.597 -1.329,1.329 0,0.736 0.597,1.332 1.328,1.332 0.735,0 1.333,-0.597 1.333,-1.333 0,-0.732 -0.598,-1.329 -1.333,-1.329 m 0.672,-5.05 c -0.734,0 -1.33,0.592 -1.33,1.328 0,0.733 0.596,1.328 1.33,1.328 0.733,0 1.329,-0.595 1.329,-1.328 0,-0.736 -0.596,-1.328 -1.329,-1.328 m -3.696,-2.642 c -0.733,0 -1.328,0.599 -1.328,1.331 0,0.733 0.595,1.329 1.328,1.329 0.734,0 1.332,-0.596 1.332,-1.329 0,-0.732 -0.598,-1.332 -1.332,-1.332 m 3.918,-2.517 c -0.734,0 -1.326,0.598 -1.326,1.333 0,0.733 0.593,1.328 1.327,1.328 0.734,0 1.332,-0.595 1.332,-1.328 0,-0.735 -0.598,-1.333 -1.332,-1.333 m -3.92,-2.402 c -0.731,0 -1.326,0.598 -1.326,1.331 0,0.732 0.595,1.329 1.326,1.329 0.735,0 1.331,-0.597 1.331,-1.329 0,-0.733 -0.596,-1.331 -1.331,-1.331 m 2.352,-1.404 c 0,0.734 0.596,1.33 1.329,1.33 0.733,0 1.33,-0.596 1.33,-1.33 0,-0.733 -0.597,-1.332 -1.331,-1.332 -0.733,0 -1.329,0.599 -1.329,1.332 m -4.009,-2.295 c 0,0.734 0.597,1.329 1.33,1.329 0.735,0 1.331,-0.596 1.331,-1.33 0,-0.735 -0.597,-1.332 -1.332,-1.332 -0.732,0 -1.33,0.597 -1.33,1.331 m 4.682,-1.49 c 0.735,0 1.331,-0.598 1.331,-1.33 0,-0.736 -0.596,-1.332 -1.331,-1.332 -0.732,0 -1.328,0.596 -1.328,1.332 0,0.732 0.596,1.329 1.328,1.329 m -5.213,-3.505 c 0,0.73 0.596,1.327 1.327,1.327 0.736,0 1.332,-0.597 1.332,-1.327 0,-0.736 -0.596,-1.332 -1.332,-1.332 -0.731,0 -1.327,0.596 -1.327,1.331 m 0.39,-3.651 c 0.734,0 1.331,-0.597 1.331,-1.329 0,-0.734 -0.597,-1.33 -1.331,-1.33 -0.734,0 -1.33,0.596 -1.33,1.33 0,0.732 0.595,1.329 1.329,1.329 m -4.392,1.749 c 0,0.733 0.597,1.328 1.329,1.328 0.731,0 1.33,-0.596 1.33,-1.329 0,-0.733 -0.599,-1.332 -1.331,-1.332 -0.733,0 -1.33,0.599 -1.33,1.332 m -1.506,1.412 c -0.732,0 -1.328,0.596 -1.328,1.331 0,0.731 0.596,1.33 1.327,1.33 0.735,0 1.333,-0.599 1.333,-1.33 0,-0.735 -0.598,-1.331 -1.333,-1.331 m -3.968,4.039 c 0,0.733 0.596,1.33 1.33,1.33 0.734,0 1.331,-0.597 1.331,-1.33 0,-0.732 -0.597,-1.331 -1.331,-1.331 -0.734,0 -1.329,0.599 -1.329,1.331 m -0.716,-4.625 c -0.734,0 -1.329,0.595 -1.329,1.331 0,0.734 0.595,1.326 1.328,1.326 0.734,0 1.331,-0.593 1.331,-1.327 0,-0.736 -0.597,-1.331 -1.331,-1.331 M 29.38,7.6 c -0.7326,0 -1.33,0.599 -1.33,1.331 0,0.734 0.5974,1.33 1.3296,1.33 0.734,0 1.329,-0.596 1.329,-1.33 0,-0.732 -0.595,-1.331 -1.329,-1.331 m -2.484,3.078 c -0.733,0 -1.33,0.596 -1.33,1.332 0,0.733 0.597,1.33 1.33,1.33 0.732,0 1.33,-0.597 1.33,-1.3298 0,-0.736 -0.599,-1.332 -1.33,-1.332 m -4.732,0.029 c -0.734,0 -1.329,0.5974 -1.329,1.333 0,0.7333 0.595,1.329 1.329,1.329 0.733,0 1.332,-0.5957 1.332,-1.329 0,-0.735 -0.599,-1.3327 -1.332,-1.3327 m -2.002,3.122 c -0.733,0 -1.328,0.598 -1.328,1.332 0,0.7334 0.596,1.327 1.328,1.327 0.733,0 1.33,-0.5936 1.33,-1.327 0,-0.734 -0.597,-1.332 -1.33,-1.332 m 0.902,4.0056 c 0,0.731 0.596,1.327 1.329,1.327 0.733,0 1.331,-0.596 1.331,-1.327 0,-0.736 -0.598,-1.333 -1.331,-1.333 -0.734,0 -1.33,0.597 -1.33,1.332 m -4.316,0.261 c 0,0.734 0.597,1.332 1.33,1.332 0.734,0 1.33,-0.598 1.33,-1.332 0,-0.733 -0.595,-1.331 -1.329,-1.331 -0.734,0 -1.331,0.598 -1.331,1.331 m -1.633,0.757 c -0.733,0 -1.329,0.598 -1.329,1.33 0,0.734 0.596,1.33 1.329,1.33 0.734,0 1.33,-0.596 1.33,-1.33 0,-0.732 -0.596,-1.33 -1.33,-1.33 M 12,23.577 c 0.7337,0 1.3326,-0.596 1.3326,-1.328 0,-0.734 -0.599,-1.332 -1.332,-1.332 -0.7337,0 -1.329,0.5983 -1.329,1.332 0,0.732 0.5953,1.328 1.329,1.328 m -0.992,-5.908 c 0,0.7292 0.596,1.326 1.33,1.326 0.7342,0 1.329,-0.5968 1.329,-1.326 0,-0.736 -0.595,-1.333 -1.3294,-1.333 -0.734,0 -1.3296,0.597 -1.3296,1.333 m -3.464,2.067 c 0,0.733 0.596,1.328 1.327,1.328 0.735,0 1.3317,-0.595 1.3317,-1.328 0,-0.7348 -0.597,-1.3328 -1.332,-1.3328 -0.731,0 -1.3274,0.598 -1.3274,1.333 m -2.315,3.709 c 0.734,0 1.332,-0.597 1.332,-1.328 0,-0.736 -0.598,-1.331 -1.333,-1.331 -0.732,0 -1.328,0.595 -1.328,1.331 0,0.731 0.596,1.328 1.328,1.328 m -3.677,-2.717 c 0.732,0 1.331,-0.598 1.331,-1.33 0,-0.736 -0.599,-1.33 -1.332,-1.33 -0.732,0 -1.328,0.594 -1.328,1.33 0,0.732 0.596,1.33 1.328,1.33 m 4.024,-2.275 c 0.735,0 1.331,-0.595 1.331,-1.326 0,-0.736 -0.596,-1.334 -1.331,-1.334 -0.733,0 -1.328,0.598 -1.328,1.334 0,0.731 0.595,1.327 1.328,1.327 M 2.24,12.943 c -0.7325,0 -1.329,0.595 -1.329,1.332 0,0.733 0.597,1.328 1.329,1.328 0.732,0 1.332,-0.595 1.332,-1.328 0,-0.737 -0.6,-1.332 -1.332,-1.332 m 3.912,0.509 c 0.734,0 1.331,-0.595 1.331,-1.3285 0,-0.7353 -0.597,-1.3315 -1.331,-1.3315 -0.7318,0 -1.327,0.597 -1.327,1.332 0,0.734 0.5952,1.329 1.327,1.329 m 3.223,0.133 c -0.733,0 -1.329,0.6 -1.329,1.333 0,0.732 0.596,1.331 1.329,1.331 0.735,0 1.3302,-0.598 1.3302,-1.33 0,-0.733 -0.5957,-1.333 -1.331,-1.333 m 2.2656,-0.638 c 0,0.7338 0.596,1.33 1.33,1.33 0.733,0 1.331,-0.596 1.331,-1.3294 0,-0.7334 -0.598,-1.332 -1.331,-1.332 -0.734,0 -1.3296,0.5986 -1.3296,1.332 m 2.6016,2.726 c 0,0.731 0.596,1.33 1.328,1.33 0.735,0 1.3326,-0.599 1.3326,-1.33 0,-0.733 -0.5972,-1.331 -1.332,-1.331 -0.7323,0 -1.328,0.5984 -1.328,1.331 M 8.712,25.856 c 0.7333,0 1.3286,-0.5958 1.3286,-1.3265 0,-0.7366 -0.595,-1.3324 -1.3286,-1.3324 -0.735,0 -1.3293,0.596 -1.3293,1.333 0,0.731 0.5944,1.327 1.3293,1.327 m 15.909,-12.18 c -0.734,0 -1.3286,0.597 -1.3286,1.333 0,0.733 0.5946,1.329 1.3285,1.329 0.733,0 1.332,-0.595 1.332,-1.328 0,-0.736 -0.599,-1.332 -1.333,-1.332 m 9.6,-5.624 c -0.733,0 -1.33,0.598 -1.33,1.332 0,0.734 0.597,1.328 1.33,1.328 0.732,0 1.33,-0.594 1.33,-1.328 0,-0.734 -0.598,-1.331 -1.33,-1.331 m 1.493,-1.944 c 0,0.734 0.595,1.33 1.328,1.33 0.732,0 1.33,-0.596 1.33,-1.33 0,-0.733 -0.599,-1.331 -1.331,-1.331 -0.733,0 -1.328,0.599 -1.328,1.332 m -3.682,0.807 c 0.734,0 1.331,-0.596 1.331,-1.329 0,-0.734 -0.597,-1.332 -1.331,-1.332 -0.733,0 -1.329,0.598 -1.329,1.332 0,0.733 0.596,1.329 1.33,1.329 m 2.837,-3.331 c 0.734,0 1.33,-0.596 1.33,-1.327 0,-0.735 -0.596,-1.333 -1.33,-1.333 -0.733,0 -1.33,0.598 -1.33,1.334 0,0.731 0.597,1.327 1.33,1.327 m -5.146,-0.651 c 0.734,0 1.328,-0.595 1.328,-1.329 0.002,-0.738 -0.592,-1.333 -1.326,-1.333 -0.736,0 -1.331,0.595 -1.331,1.332 0,0.734 0.595,1.33 1.331,1.33 m -5.122,-0.269 c 0.734,0 1.331,-0.596 1.331,-1.328 0,-0.734 -0.597,-1.333 -1.332,-1.333 -0.732,0 -1.328,0.599 -1.328,1.333 0,0.732 0.597,1.328 1.329,1.328 m -5.217,0.256 c 0.735,0 1.331,-0.599 1.331,-1.329 0,-0.736 -0.597,-1.332 -1.331,-1.332 -0.733,0 -1.329,0.596 -1.329,1.333 0,0.731 0.597,1.33 1.33,1.33 m -5.008,0.677 c 0.735,0 1.331,-0.596 1.331,-1.329 0,-0.734 -0.596,-1.332 -1.332,-1.332 -0.734,0 -1.328,0.598 -1.328,1.332 0,0.733 0.594,1.329 1.328,1.329 m 7.652,3.004 c 0.734,0 1.33,-0.599 1.33,-1.33 0,-0.733 -0.597,-1.331 -1.331,-1.331 -0.732,0 -1.328,0.599 -1.328,1.331 0,0.731 0.596,1.33 1.328,1.33 m -4.93,0.326 c 0.734,0 1.331,-0.595 1.331,-1.329 0,-0.733 -0.598,-1.332 -1.332,-1.332 -0.734,0 -1.329,0.599 -1.329,1.333 0,0.734 0.595,1.329 1.329,1.329 m -2.182,1.142 c -0.731,0 -1.329,0.596 -1.329,1.33 0,0.734 0.597,1.331 1.328,1.331 0.734,0 1.331,-0.597 1.331,-1.331 0,-0.734 -0.597,-1.329 -1.332,-1.329 M 10.11,11.56 c 0.733,0 1.331,-0.5964 1.331,-1.3297 0,-0.733 -0.598,-1.3318 -1.331,-1.3318 -0.7332,0 -1.3285,0.5983 -1.3285,1.3317 0,0.7334 0.5953,1.33 1.3287,1.33 M 7.299,8.449 c 0.7333,0 1.3312,-0.5963 1.3312,-1.33 0,-0.7335 -0.598,-1.3315 -1.3312,-1.3315 -0.7334,0 -1.3303,0.598 -1.3303,1.3314 0,0.733 0.597,1.33 1.3303,1.33 m 4.8197,-0.991 c 0.7334,0 1.3313,-0.597 1.3313,-1.331 0,-0.733 -0.598,-1.329 -1.3313,-1.329 -0.7338,0 -1.3296,0.596 -1.3296,1.328 0,0.734 0.596,1.33 1.33,1.33 m 4.199,4.9 c 0,0.732 0.597,1.327 1.329,1.327 0.735,0 1.331,-0.595 1.331,-1.328 0,-0.735 -0.596,-1.333 -1.33,-1.333 -0.732,0 -1.329,0.598 -1.329,1.332 m 3.389,-4.771 c -0.732,0 -1.327,0.597 -1.327,1.33 0,0.734 0.595,1.331 1.327,1.331 0.732,0 1.331,-0.597 1.331,-1.331 0,-0.733 -0.599,-1.33 -1.331,-1.33 m 7.291,-0.986 c 0.733,0 1.331,-0.597 1.331,-1.328 0,-0.736 -0.598,-1.334 -1.33,-1.334 -0.733,0 -1.33,0.598 -1.33,1.334 0,0.731 0.597,1.328 1.33,1.328 m -2.388,0.782 c -0.732,0 -1.327,0.597 -1.327,1.332 0,0.734 0.595,1.329 1.328,1.329 0.735,0 1.332,-0.595 1.332,-1.329 0,-0.735 -0.597,-1.332 -1.332,-1.332 m 7.735,10.702 c 0,-0.735 -0.596,-1.33 -1.33,-1.33 -0.732,0 -1.329,0.595 -1.329,1.33 0,0.734 0.597,1.33 1.329,1.33 0.734,0 1.331,-0.597 1.331,-1.331 m -3.557,0.963 c -0.731,0 -1.327,0.596 -1.327,1.331 0,0.731 0.596,1.328 1.327,1.328 0.734,0 1.333,-0.597 1.333,-1.328 0,-0.735 -0.599,-1.331 -1.333,-1.331 m -3.414,-1.268 c 0,0.732 0.597,1.328 1.329,1.328 0.735,0 1.333,-0.597 1.333,-1.329 0,-0.733 -0.597,-1.332 -1.332,-1.332 -0.732,0 -1.328,0.599 -1.328,1.332 m -0.78,1.186 c -0.732,0 -1.328,0.595 -1.328,1.328 0,0.733 0.597,1.332 1.328,1.332 0.735,0 1.331,-0.599 1.331,-1.332 0,-0.733 -0.596,-1.329 -1.331,-1.329 m -3.418,3.566 c 0,0.732 0.596,1.328 1.33,1.328 0.733,0 1.331,-0.596 1.331,-1.328 0,-0.735 -0.598,-1.332 -1.33,-1.332 -0.734,0 -1.33,0.597 -1.33,1.332 m -0.799,-3.454 c -0.73,0 -1.326,0.596 -1.326,1.331 0,0.731 0.596,1.33 1.327,1.33 0.736,0 1.333,-0.599 1.333,-1.33 0,-0.735 -0.597,-1.332 -1.333,-1.332 m -0.119,6.81 c 0.731,0 1.333,-0.595 1.333,-1.329 0,-0.734 -0.602,-1.332 -1.333,-1.332 -0.735,0 -1.33,0.598 -1.33,1.331 0,0.734 0.596,1.329 1.331,1.329 m -2.485,-2.073 c 0.732,0 1.328,-0.597 1.328,-1.329 0,-0.734 -0.596,-1.333 -1.328,-1.333 -0.733,0 -1.329,0.598 -1.329,1.332 0,0.732 0.596,1.329 1.329,1.329 m 0.01,4.263 c 0.734,0 1.333,-0.598 1.333,-1.324 0,-0.738 -0.598,-1.333 -1.332,-1.333 -0.731,0 -1.329,0.595 -1.329,1.333 0,0.727 0.597,1.324 1.328,1.324 m -2.811,-2.219 c 0.733,0 1.331,-0.598 1.331,-1.331 0,-0.735 -0.598,-1.33 -1.331,-1.33 -0.734,0 -1.33,0.595 -1.33,1.33 0,0.733 0.596,1.331 1.33,1.331 m 0.214,4.478 c 0.732,0 1.329,-0.596 1.329,-1.33 0,-0.733 -0.597,-1.331 -1.329,-1.331 -0.736,0 -1.33,0.598 -1.33,1.331 0,0.734 0.595,1.33 1.331,1.33 m -3.183,-2.033 c 0.732,0 1.33,-0.6 1.33,-1.333 0,-0.732 -0.598,-1.331 -1.33,-1.331 -0.733,0 -1.329,0.599 -1.329,1.33 0,0.733 0.596,1.333 1.329,1.333 m 0.369,4.556 c 0.735,0 1.331,-0.593 1.331,-1.325 0,-0.735 -0.596,-1.333 -1.331,-1.333 -0.732,0 -1.33,0.598 -1.33,1.333 0,0.732 0.598,1.326 1.33,1.326 m -2.997,2.72 c 0.733,0 1.331,-0.598 1.331,-1.33 0,-0.733 -0.598,-1.334 -1.331,-1.334 -0.733,0 -1.329,0.601 -1.329,1.334 0,0.732 0.597,1.33 1.33,1.33 m -2.498,-3.53 c 0,-0.736 -0.596,-1.333 -1.33,-1.333 -0.732,0 -1.329,0.598 -1.329,1.334 0,0.732 0.597,1.33 1.329,1.33 0.734,0 1.331,-0.597 1.331,-1.329 m -3.99,-2.31 c 0,-0.737 -0.598,-1.329 -1.332,-1.329 -0.734,0 -1.329,0.592 -1.329,1.329 0,0.731 0.596,1.326 1.33,1.326 0.734,0 1.332,-0.595 1.332,-1.326 m 2.336,-1.318 c 0.735,0 1.333,-0.598 1.333,-1.331 0,-0.731 -0.598,-1.33 -1.332,-1.33 -0.732,0 -1.328,0.599 -1.328,1.331 0,0.733 0.596,1.331 1.328,1.331 M 1.328,25.86 c 0.734,0 1.332,-0.596 1.332,-1.326 0,-0.734 -0.599,-1.3327 -1.333,-1.3327 -0.73,0 -1.3285,0.5985 -1.3285,1.3325 0,0.7304 0.5984,1.3263 1.3286,1.3263 m 7.554,4.862 c 0.734,0 1.332,-0.594 1.332,-1.328 0,-0.736 -0.598,-1.332 -1.333,-1.332 -0.732,0 -1.328,0.597 -1.328,1.333 0,0.735 0.596,1.329 1.328,1.329 M 2.228,33.42 c -0.733,0 -1.328,0.598 -1.328,1.3297 0,0.7356 0.595,1.331 1.328,1.331 0.7347,0 1.3316,-0.5954 1.3316,-1.331 0,-0.7316 -0.597,-1.3295 -1.3317,-1.3295 m 5.216,3.6474 c 0,-0.7333 -0.596,-1.3296 -1.332,-1.3296 -0.732,0 -1.328,0.596 -1.328,1.3294 0,0.735 0.596,1.33 1.328,1.33 0.736,0 1.332,-0.595 1.332,-1.33 m 16.397,-10.401 c 0,-0.733 -0.598,-1.33 -1.332,-1.33 -0.734,0 -1.33,0.5975 -1.33,1.331 0,0.7343 0.596,1.3265 1.329,1.3265 0.733,0 1.331,-0.592 1.331,-1.327 m 0.755,3.503 c 0.733,0 1.331,-0.595 1.331,-1.331 0,-0.731 -0.598,-1.33 -1.331,-1.33 -0.734,0 -1.33,0.599 -1.33,1.33 0,0.736 0.596,1.331 1.33,1.331 m -0.877,1.184 c 0,-0.734 -0.598,-1.329 -1.331,-1.329 -0.735,0 -1.33,0.595 -1.33,1.329 0,0.732 0.595,1.33 1.33,1.33 0.733,0 1.331,-0.598 1.331,-1.33 m -3.539,3.982 c 0.734,0 1.33,-0.598 1.33,-1.331 0,-0.736 -0.597,-1.332 -1.331,-1.332 -0.735,0 -1.329,0.596 -1.329,1.332 0,0.733 0.594,1.331 1.328,1.331 m 2.012,3.125 c 0.733,0 1.33,-0.597 1.33,-1.328 0,-0.737 -0.597,-1.335 -1.331,-1.335 -0.733,0 -1.328,0.598 -1.328,1.334 0,0.732 0.596,1.328 1.328,1.328 m -2.466,3.098 c 0.734,0 1.331,-0.595 1.331,-1.329 0,-0.735 -0.597,-1.333 -1.331,-1.333 -0.734,0 -1.33,0.597 -1.33,1.332 0,0.734 0.595,1.329 1.329,1.329 m -4.841,-0.503 c 0.734,0 1.331,-0.598 1.331,-1.33 0,-0.737 -0.598,-1.333 -1.332,-1.333 -0.733,0 -1.33,0.597 -1.33,1.333 0,0.732 0.597,1.33 1.33,1.33 M 12.99,37.52 c 0.733,0 1.3304,-0.598 1.3304,-1.3305 0,-0.7335 -0.597,-1.331 -1.3304,-1.331 -0.734,0 -1.329,0.5975 -1.329,1.3308 0,0.7326 0.5947,1.3306 1.3286,1.3306 m 4.652,0.578 c 0.7326,0 1.3285,-0.596 1.3285,-1.329 0,-0.731 -0.596,-1.33 -1.328,-1.33 -0.734,0 -1.331,0.599 -1.331,1.329 0,0.734 0.597,1.329 1.331,1.329 m -0.727,-4.64 c 0,-0.734 -0.599,-1.331 -1.332,-1.331 -0.732,0 -1.329,0.597 -1.329,1.331 0,0.734 0.597,1.329 1.329,1.329 0.734,0 1.332,-0.595 1.332,-1.33 m 1.141,-1.084 c 0.735,0 1.332,-0.596 1.332,-1.331 0,-0.733 -0.597,-1.33 -1.331,-1.33 -0.732,0 -1.328,0.597 -1.328,1.33 0,0.735 0.596,1.331 1.328,1.331 m 2.322,-2.29 c 0.735,0 1.331,-0.598 1.331,-1.33 0,-0.733 -0.596,-1.329 -1.331,-1.329 -0.731,0 -1.328,0.596 -1.328,1.329 0,0.732 0.597,1.33 1.328,1.33 m -8.95,8.848 c 0,-0.734 -0.599,-1.33 -1.332,-1.33 -0.733,0 -1.328,0.596 -1.328,1.33 0,0.732 0.595,1.33 1.328,1.33 0.733,0 1.332,-0.598 1.332,-1.33 m 0.648,2.741 c -0.731,0 -1.33,0.595 -1.33,1.33 0,0.732 0.599,1.329 1.33,1.329 0.734,0 1.332,-0.598 1.332,-1.329 0,-0.734 -0.598,-1.33 -1.332,-1.33 m -4.814,-0.968 c -0.735,0 -1.331,0.596 -1.331,1.328 0,0.737 0.596,1.334 1.331,1.334 0.732,0 1.33,-0.597 1.33,-1.334 0,-0.732 -0.598,-1.328 -1.329,-1.328 m 9.819,1.514 c -0.733,0 -1.329,0.595 -1.329,1.329 0,0.731 0.596,1.329 1.329,1.329 0.735,0 1.332,-0.598 1.332,-1.33 0,-0.735 -0.597,-1.33 -1.332,-1.33 m 11.886,-28.374 c -0.731,0 -1.329,0.597 -1.329,1.331 0,0.733 0.598,1.327 1.329,1.327 0.734,0 1.331,-0.595 1.331,-1.328 0,-0.734 -0.597,-1.331 -1.331,-1.331 m 9.416,1.108 c 0,0.734 0.596,1.329 1.33,1.329 0.735,0 1.33,-0.595 1.33,-1.329 0,-0.734 -0.594,-1.333 -1.329,-1.333 -0.734,0 -1.33,0.599 -1.33,1.333 m -1.616,1.398 c -0.733,0 -1.33,0.599 -1.33,1.332 0,0.733 0.597,1.328 1.33,1.328 0.733,0 1.33,-0.596 1.33,-1.329 0,-0.733 -0.597,-1.332 -1.33,-1.332 m 3.444,4.712 c 0.735,0 1.331,-0.595 1.331,-1.329 0,-0.734 -0.597,-1.332 -1.331,-1.332 -0.733,0 -1.328,0.597 -1.328,1.331 0,0.734 0.596,1.329 1.329,1.329 m 0.209,2.134 c -0.733,0 -1.329,0.598 -1.329,1.333 0,0.732 0.597,1.328 1.33,1.328 0.734,0 1.33,-0.596 1.33,-1.329 0,-0.735 -0.596,-1.333 -1.33,-1.333 m -4.671,-0.965 c 0,0.731 0.596,1.326 1.331,1.326 0.732,0 1.328,-0.595 1.328,-1.326 0,-0.736 -0.596,-1.332 -1.329,-1.332 -0.735,0 -1.331,0.596 -1.331,1.332 m -1.748,-0.724 c 0.735,0 1.331,-0.597 1.331,-1.328 0,-0.736 -0.596,-1.3305 -1.331,-1.3305 -0.733,0 -1.329,0.5946 -1.329,1.33 0,0.7316 0.596,1.328 1.329,1.328"
       id="path4"
       inkscape:connector-curvature="0"
       sodipodi:nodetypes="csssccsssccsssccsssccsssccsssccsssccsssccsssccsssccsssccsssccsssccsssccsssccsssccsssccsssccsssccsssccsssccsssccsssccsssccsssccsssccsssccsssccsssccsssccsssccsssccsssccsssccsssccsssccsssccsssccsssccsssccsssccsssccsssccsssccsssccsssccsssccsssccsssccsssccsssccsssccsssccsssccsssccsssccsssccsssccsssccsssccsssccsssccsssccsssccsssccsssccsssccsssccsssccsssccsssccsssccsssccssscccssccsssccsssccsssccsssccsssccsssccsssccsssccsssccsssccsssccsssccsssccsssccsssccsssccsssccsssccsssccsssccsssccsssccsssccsssccsssccsssccsssccsssccsssccsssccsssccsssccsssccsssccsssccsssccsssccsssccsssccsssccsssccsssccsssccsssccsssccsssccsssccsssccsssccsssccsssccsssccsssccsssccsssccsssccsssc"
       style="fill:#ffffff;fill-opacity:1" />
  </g>
  <g
     aria-label="Universität Stuttgart"
     style="font-style:normal;font-weight:normal;font-size:40px;line-height:13.11496067px;font-family:sans-serif;letter-spacing:0px;word-spacing:0px;fill:#ffffff;fill-opacity:1;stroke:none;stroke-width:1px;stroke-linecap:butt;stroke-linejoin:miter;stroke-opacity:1"
     id="text823">
    <path
       d="m 65.005733,17.953274 v 7.645867 q 0,1.553066 0.6144,2.235733 0.6144,0.6656 2.0992,0.6656 1.2288,0 1.979734,-0.6144 0.768,-0.631467 0.768,-2.235733 v -7.697067 h 2.577066 v 7.765333 q 0,2.218667 -1.501866,3.498667 -1.4848,1.28 -3.822934,1.28 -2.542933,0 -3.959467,-1.211733 -1.399467,-1.211734 -1.399467,-3.4816 v -7.850667 z"
       style="font-style:normal;font-variant:normal;font-weight:normal;font-stretch:normal;font-size:17.06666756px;font-family:'Univers for UniS 65 Bold';-inkscape-font-specification:'Univers for UniS 65 Bold, ';fill:#ffffff;fill-opacity:1"
       id="path866" />
    <path
       d="m 83.648401,30.258341 h -2.577067 v -5.563734 q 0,-0.7168 -0.375467,-1.092267 -0.375467,-0.375466 -0.9728,-0.375466 -0.7168,0 -1.1776,0.4608 -0.4608,0.4608 -0.4608,1.450667 v 5.12 h -2.542933 v -7.901867 q 0,-0.341334 -0.0512,-0.750934 H 77.914 l 0.06827,1.297067 q 0.443733,-0.768 1.160533,-1.1264 0.7168,-0.375467 1.6384,-0.375467 1.160534,0 2.013867,0.699734 0.853334,0.699733 0.853334,2.730667 z"
       style="font-style:normal;font-variant:normal;font-weight:normal;font-stretch:normal;font-size:17.06666756px;font-family:'Univers for UniS 65 Bold';-inkscape-font-specification:'Univers for UniS 65 Bold, ';fill:#ffffff;fill-opacity:1"
       id="path868" />
    <path
       d="m 88.552134,17.936207 v 2.2016 H 85.8556 v -2.2016 z m -0.08533,3.6864 v 8.635734 h -2.525866 v -8.635734 z"
       style="font-style:normal;font-variant:normal;font-weight:normal;font-stretch:normal;font-size:17.06666756px;font-family:'Univers for UniS 65 Bold';-inkscape-font-specification:'Univers for UniS 65 Bold, ';fill:#ffffff;fill-opacity:1"
       id="path870" />
    <path
       d="m 92.380934,21.639674 1.9456,5.853867 1.979733,-5.853867 h 2.440534 l -3.106134,8.618667 H 92.841734 L 89.6844,21.639674 Z"
       style="font-style:normal;font-variant:normal;font-weight:normal;font-stretch:normal;font-size:17.06666756px;font-family:'Univers for UniS 65 Bold';-inkscape-font-specification:'Univers for UniS 65 Bold, ';fill:#ffffff;fill-opacity:1"
       id="path872" />
    <path
       d="m 103.66387,21.34954 q 1.87733,0 2.93547,1.262934 1.0752,1.245867 1.0752,3.584 0,0.238933 -0.0171,0.392533 h -5.7856 q 0,1.2288 0.44373,1.774934 0.4608,0.529066 1.31414,0.529066 0.6656,0 1.00693,-0.324266 0.34133,-0.324267 0.49493,-0.8704 h 2.304 q -0.11946,1.399466 -1.10933,2.1504 -0.98987,0.733867 -2.7136,0.733867 -2.01387,0 -3.08907,-1.092267 -1.075198,-1.109334 -1.075198,-3.345067 0,-2.1504 1.075198,-3.4304 1.09227,-1.297067 3.14027,-1.365334 z m 1.41653,3.652267 q 0,-0.9216 -0.37546,-1.416533 -0.37547,-0.512 -1.1264,-0.512 -0.7168,0 -1.14347,0.494933 -0.42667,0.477867 -0.47787,1.4336 z"
       style="font-style:normal;font-variant:normal;font-weight:normal;font-stretch:normal;font-size:17.06666756px;font-family:'Univers for UniS 65 Bold';-inkscape-font-specification:'Univers for UniS 65 Bold, ';fill:#ffffff;fill-opacity:1"
       id="path874" />
    <path
       d="m 114.5804,23.858341 q -0.29013,-0.03413 -0.64853,-0.03413 -0.9728,0 -1.51893,0.4608 -0.54614,0.4608 -0.54614,1.6384 v 4.334934 h -2.52586 V 23.39754 q -0.0683,-1.518933 -0.11947,-1.792 h 2.37227 q 0.0512,0.392534 0.0512,1.6384 0.44373,-0.955733 1.0752,-1.297066 0.64853,-0.3584 1.5872,-0.3584 h 0.27306 z"
       style="font-style:normal;font-variant:normal;font-weight:normal;font-stretch:normal;font-size:17.06666756px;font-family:'Univers for UniS 65 Bold';-inkscape-font-specification:'Univers for UniS 65 Bold, ';fill:#ffffff;fill-opacity:1"
       id="path876" />
    <path
       d="m 122.59614,23.977807 h -2.304 q -0.0341,-0.477867 -0.32427,-0.750933 -0.29013,-0.273067 -0.90453,-0.273067 -0.52907,0 -0.8704,0.238933 -0.32427,0.221867 -0.32427,0.6144 0,0.546134 0.64853,0.750934 0.64854,0.2048 1.29707,0.375467 1.97973,0.477866 2.52587,1.109333 0.5632,0.6144 0.5632,1.501867 0,1.297066 -1.09227,2.133333 -1.09227,0.836267 -2.8672,0.836267 -1.60427,0 -2.59413,-0.733867 -0.98987,-0.733867 -0.98987,-2.013867 h 2.37227 q 0.0341,0.546134 0.39253,0.8704 0.37547,0.3072 1.04107,0.3072 0.59733,0 0.95573,-0.290133 0.37547,-0.290133 0.37547,-0.733867 0,-0.3584 -0.3072,-0.597333 -0.3072,-0.256 -2.26987,-0.733867 -1.19467,-0.341333 -1.792,-0.887466 -0.58027,-0.546134 -0.58027,-1.570134 0,-1.245867 1.05814,-1.962667 1.05813,-0.733866 2.7136,-0.733866 1.46773,0 2.33813,0.682666 0.8704,0.6656 0.93867,1.860267 z"
       style="font-style:normal;font-variant:normal;font-weight:normal;font-stretch:normal;font-size:17.06666756px;font-family:'Univers for UniS 65 Bold';-inkscape-font-specification:'Univers for UniS 65 Bold, ';fill:#ffffff;fill-opacity:1"
       id="path878" />
    <path
       d="m 127.1188,17.936207 v 2.2016 h -2.69653 v -2.2016 z m -0.0853,3.6864 v 8.635734 h -2.52587 v -8.635734 z"
       style="font-style:normal;font-variant:normal;font-weight:normal;font-stretch:normal;font-size:17.06666756px;font-family:'Univers for UniS 65 Bold';-inkscape-font-specification:'Univers for UniS 65 Bold, ';fill:#ffffff;fill-opacity:1"
       id="path880" />
    <path
       d="m 132.31294,21.690874 h 2.048 v 1.672533 h -2.048 v 3.908267 q 0,0.750933 0.22187,1.006933 0.22186,0.256 0.93866,0.256 0.256,0.01707 0.83627,-0.0512 v 1.655467 q -0.6144,0.170667 -1.1264,0.221867 -0.512,0.0512 -0.83627,0.0512 -1.26293,0 -1.91146,-0.529067 -0.63147,-0.529067 -0.63147,-1.723733 v -4.795734 h -1.65547 v -1.672533 h 1.65547 v -1.6896 l 2.5088,-0.9216 z"
       style="font-style:normal;font-variant:normal;font-weight:normal;font-stretch:normal;font-size:17.06666756px;font-family:'Univers for UniS 65 Bold';-inkscape-font-specification:'Univers for UniS 65 Bold, ';fill:#ffffff;fill-opacity:1"
       id="path882" />
    <path
       d="m 143.12761,24.523941 v 3.157333 q 0,1.5872 0.2048,2.577067 h -2.28694 q -0.0341,-0.170667 -0.0853,-1.1776 -0.44373,0.648533 -1.05813,1.024 -0.6144,0.3584 -1.536,0.3584 -1.51894,0 -2.2016,-0.750934 -0.68267,-0.768 -0.68267,-1.7408 0,-1.501866 1.14347,-2.372266 1.16053,-0.8704 3.66933,-0.8704 h 0.42667 v -0.341334 q 0,-1.518933 -1.26294,-1.518933 -0.49493,0 -0.8192,0.324266 -0.3072,0.3072 -0.3072,0.921601 h -2.47466 q 0.0341,-1.348267 0.9728,-2.030934 0.95573,-0.699733 2.59413,-0.699733 1.60427,0 2.64533,0.7168 1.05814,0.699733 1.05814,2.423467 z m -3.95947,4.3008 q 0.7168,0 1.1264,-0.580267 0.42667,-0.597333 0.42667,-1.604267 v -0.443733 l -0.44374,-0.01707 q -1.1776,0 -1.75786,0.392534 -0.58027,0.392533 -0.58027,1.024 0,0.529066 0.34133,0.887466 0.34134,0.341334 0.88747,0.341334 z M 138.87801,18.02154 v 2.013867 h -1.7408 V 18.02154 Z m 2.93546,0 v 2.013867 h -1.7408 V 18.02154 Z"
       style="font-style:normal;font-variant:normal;font-weight:normal;font-stretch:normal;font-size:17.06666756px;font-family:'Univers for UniS 65 Bold';-inkscape-font-specification:'Univers for UniS 65 Bold, ';fill:#ffffff;fill-opacity:1"
       id="path884" />
    <path
       d="m 148.44627,21.690874 h 2.048 v 1.672533 h -2.048 v 3.908267 q 0,0.750933 0.22187,1.006933 0.22187,0.256 0.93867,0.256 0.256,0.01707 0.83626,-0.0512 v 1.655467 q -0.6144,0.170667 -1.1264,0.221867 -0.512,0.0512 -0.83626,0.0512 -1.26294,0 -1.91147,-0.529067 -0.63147,-0.529067 -0.63147,-1.723733 v -4.795734 h -1.65546 v -1.672533 h 1.65546 v -1.6896 l 2.5088,-0.9216 z"
       style="font-style:normal;font-variant:normal;font-weight:normal;font-stretch:normal;font-size:17.06666756px;font-family:'Univers for UniS 65 Bold';-inkscape-font-specification:'Univers for UniS 65 Bold, ';fill:#ffffff;fill-opacity:1"
       id="path886" />
    <path
       d="m 165.92281,21.366607 v 0.08533 h -2.54294 v -0.08533 q -0.0853,-0.853333 -0.59733,-1.314133 -0.49493,-0.477867 -1.39947,-0.477867 -0.88746,0 -1.46773,0.443733 -0.5632,0.426667 -0.5632,1.2288 0,0.887467 0.8192,1.2288 0.8192,0.341334 2.38933,0.699734 2.01387,0.443733 2.85014,1.262933 0.85333,0.802134 0.85333,2.0992 0,1.809067 -1.45067,2.9184 -1.45066,1.092267 -3.75466,1.092267 -2.49174,0 -3.66934,-1.041067 -1.16053,-1.041066 -1.16053,-3.191466 h 2.69653 v 0.1024 q 0,1.160533 0.58027,1.706666 0.58027,0.529067 1.65547,0.529067 0.98986,0 1.65546,-0.443733 0.68267,-0.443734 0.68267,-1.297067 0,-0.529067 -0.3072,-0.8704 -0.3072,-0.341333 -1.9456,-0.750933 -2.88427,-0.699734 -3.75467,-1.587201 -0.8704,-0.904533 -0.8704,-2.1504 0,-1.792 1.29707,-2.816 1.31413,-1.024 3.584,-1.024 2.048,0 3.2256,0.9728 1.19467,0.955734 1.19467,2.679467 z"
       style="font-style:normal;font-variant:normal;font-weight:normal;font-stretch:normal;font-size:17.06666756px;font-family:'Univers for UniS 65 Bold';-inkscape-font-specification:'Univers for UniS 65 Bold, ';fill:#ffffff;fill-opacity:1"
       id="path888" />
    <path
       d="m 171.21294,21.690874 h 2.048 v 1.672533 h -2.048 v 3.908267 q 0,0.750933 0.22187,1.006933 0.22187,0.256 0.93867,0.256 0.256,0.01707 0.83626,-0.0512 v 1.655467 q -0.6144,0.170667 -1.1264,0.221867 -0.512,0.0512 -0.83626,0.0512 -1.26294,0 -1.91147,-0.529067 -0.63147,-0.529067 -0.63147,-1.723733 v -4.795734 h -1.65546 v -1.672533 h 1.65546 v -1.6896 l 2.5088,-0.9216 z"
       style="font-style:normal;font-variant:normal;font-weight:normal;font-stretch:normal;font-size:17.06666756px;font-family:'Univers for UniS 65 Bold';-inkscape-font-specification:'Univers for UniS 65 Bold, ';fill:#ffffff;fill-opacity:1"
       id="path890" />
    <path
       d="m 176.98227,21.639674 v 5.290667 q 0,0.989866 0.34133,1.365333 0.3584,0.375467 1.00694,0.375467 0.8192,0 1.21173,-0.443734 0.4096,-0.4608 0.4096,-2.0992 v -4.488533 h 2.59413 v 6.144 q 0.0683,2.235733 0.11947,2.474667 h -2.4576 l -0.0853,-1.143467 q -0.4608,0.7168 -1.09227,1.041067 -0.63147,0.324267 -1.45067,0.324267 -1.2288,0 -2.2016,-0.750934 -0.95573,-0.750933 -0.95573,-2.6624 v -5.4272 z"
       style="font-style:normal;font-variant:normal;font-weight:normal;font-stretch:normal;font-size:17.06666756px;font-family:'Univers for UniS 65 Bold';-inkscape-font-specification:'Univers for UniS 65 Bold, ';fill:#ffffff;fill-opacity:1"
       id="path892" />
    <path
       d="m 188.01294,21.690874 h 2.048 v 1.672533 h -2.048 v 3.908267 q 0,0.750933 0.22186,1.006933 0.22187,0.256 0.93867,0.256 0.256,0.01707 0.83627,-0.0512 v 1.655467 q -0.6144,0.170667 -1.1264,0.221867 -0.512,0.0512 -0.83627,0.0512 -1.26293,0 -1.91147,-0.529067 -0.63146,-0.529067 -0.63146,-1.723733 v -4.795734 h -1.65547 v -1.672533 h 1.65547 v -1.6896 l 2.5088,-0.9216 z"
       style="font-style:normal;font-variant:normal;font-weight:normal;font-stretch:normal;font-size:17.06666756px;font-family:'Univers for UniS 65 Bold';-inkscape-font-specification:'Univers for UniS 65 Bold, ';fill:#ffffff;fill-opacity:1"
       id="path894" />
    <path
       d="m 194.21294,21.690874 h 2.048 v 1.672533 h -2.048 v 3.908267 q 0,0.750933 0.22187,1.006933 0.22187,0.256 0.93867,0.256 0.256,0.01707 0.83626,-0.0512 v 1.655467 q -0.6144,0.170667 -1.1264,0.221867 -0.512,0.0512 -0.83626,0.0512 -1.26294,0 -1.91147,-0.529067 -0.63147,-0.529067 -0.63147,-1.723733 v -4.795734 h -1.65546 v -1.672533 h 1.65546 v -1.6896 l 2.5088,-0.9216 z"
       style="font-style:normal;font-variant:normal;font-weight:normal;font-stretch:normal;font-size:17.06666756px;font-family:'Univers for UniS 65 Bold';-inkscape-font-specification:'Univers for UniS 65 Bold, ';fill:#ffffff;fill-opacity:1"
       id="path896" />
    <path
       d="m 203.49161,22.817274 0.0853,-1.143467 h 2.37227 q -0.0512,0.392533 -0.11947,1.9968 v 6.553601 q 0,1.723733 -1.09227,2.577066 -1.0752,0.853334 -3.1744,0.853334 -1.8944,0 -2.816,-0.682667 -0.9216,-0.6656 -1.00693,-2.082133 h 2.42347 q 0.0512,0.5632 0.42666,0.8704 0.39254,0.324266 1.0752,0.324266 0.59734,0 0.9728,-0.256 0.37547,-0.238933 0.512,-0.597333 0.1536,-0.3584 0.2048,-1.416534 v -0.904533 q -0.42666,0.5632 -0.98986,0.8704 -0.5632,0.3072 -1.34827,0.3072 -1.62133,0 -2.62827,-1.211733 -0.98986,-1.2288 -0.98986,-3.0208 0,-1.860267 0.98986,-3.054934 1.00694,-1.211733 2.69654,-1.211733 0.80213,0 1.3824,0.290133 0.59733,0.290133 1.024,0.938667 z m -1.87734,5.546667 q 0.8704,0 1.31414,-0.648534 0.4608,-0.648533 0.4608,-1.826133 0,-1.314133 -0.44374,-1.962667 -0.44373,-0.648533 -1.29706,-0.648533 -0.78507,0 -1.26294,0.648533 -0.4608,0.648534 -0.4608,1.911467 0,1.262933 0.42667,1.8944 0.44373,0.631467 1.26293,0.631467 z"
       style="font-style:normal;font-variant:normal;font-weight:normal;font-stretch:normal;font-size:17.06666756px;font-family:'Univers for UniS 65 Bold';-inkscape-font-specification:'Univers for UniS 65 Bold, ';fill:#ffffff;fill-opacity:1"
       id="path898" />
    <path
       d="m 215.12761,24.523941 v 3.157333 q 0,1.5872 0.2048,2.577067 h -2.28693 q -0.0341,-0.170667 -0.0853,-1.1776 -0.44374,0.648533 -1.05814,1.024 -0.6144,0.3584 -1.536,0.3584 -1.51893,0 -2.2016,-0.750934 -0.68266,-0.768 -0.68266,-1.7408 0,-1.501866 1.14346,-2.372266 1.16054,-0.8704 3.66934,-0.8704 h 0.42666 v -0.341334 q 0,-1.518933 -1.26293,-1.518933 -0.49493,0 -0.8192,0.324266 -0.3072,0.3072 -0.3072,0.921601 h -2.47467 q 0.0341,-1.348267 0.9728,-2.030934 0.95574,-0.699733 2.59414,-0.699733 1.60426,0 2.64533,0.7168 1.05813,0.699733 1.05813,2.423467 z m -3.95946,4.3008 q 0.7168,0 1.1264,-0.580267 0.42666,-0.597333 0.42666,-1.604267 v -0.443733 l -0.44373,-0.01707 q -1.1776,0 -1.75787,0.392534 -0.58026,0.392533 -0.58026,1.024 0,0.529066 0.34133,0.887466 0.34133,0.341334 0.88747,0.341334 z"
       style="font-style:normal;font-variant:normal;font-weight:normal;font-stretch:normal;font-size:17.06666756px;font-family:'Univers for UniS 65 Bold';-inkscape-font-specification:'Univers for UniS 65 Bold, ';fill:#ffffff;fill-opacity:1"
       id="path900" />
    <path
       d="m 222.61375,23.858341 q -0.29014,-0.03413 -0.64854,-0.03413 -0.9728,0 -1.51893,0.4608 -0.54613,0.4608 -0.54613,1.6384 v 4.334934 h -2.52587 V 23.39754 q -0.0683,-1.518933 -0.11947,-1.792 h 2.37227 q 0.0512,0.392534 0.0512,1.6384 0.44373,-0.955733 1.0752,-1.297066 0.64853,-0.3584 1.5872,-0.3584 h 0.27307 z"
       style="font-style:normal;font-variant:normal;font-weight:normal;font-stretch:normal;font-size:17.06666756px;font-family:'Univers for UniS 65 Bold';-inkscape-font-specification:'Univers for UniS 65 Bold, ';fill:#ffffff;fill-opacity:1"
       id="path902" />
    <path
       d="m 226.74628,21.690874 h 2.048 v 1.672533 h -2.048 v 3.908267 q 0,0.750933 0.22187,1.006933 0.22187,0.256 0.93867,0.256 0.256,0.01707 0.83626,-0.0512 v 1.655467 q -0.6144,0.170667 -1.1264,0.221867 -0.512,0.0512 -0.83626,0.0512 -1.26294,0 -1.91147,-0.529067 -0.63147,-0.529067 -0.63147,-1.723733 v -4.795734 h -1.65546 v -1.672533 h 1.65546 v -1.6896 l 2.5088,-0.9216 z"
       style="font-style:normal;font-variant:normal;font-weight:normal;font-stretch:normal;font-size:17.06666756px;font-family:'Univers for UniS 65 Bold';-inkscape-font-specification:'Univers for UniS 65 Bold, ';fill:#ffffff;fill-opacity:1"
       id="path904" />
  </g>
  <g
     aria-label="CIP-Pool Physik"
     style="font-style:normal;font-weight:normal;font-size:40px;line-height:13.11496067px;font-family:sans-serif;letter-spacing:0px;word-spacing:0px;fill:#ffffff;fill-opacity:1;stroke:none;stroke-width:1px;stroke-linecap:butt;stroke-linejoin:miter;stroke-opacity:1"
     id="text823-6">
    <path
       d="m 69.07423,42.601413 q -0.128,-1.008 -0.784,-1.504 -0.64,-0.496 -1.712,-0.496 -1.632,0 -2.464,1.248 -0.816,1.248 -0.816,3.52 0,2.24 0.832,3.392 0.832,1.136 2.432,1.136 1.024,0 1.648,-0.48 0.64,-0.496 0.784,-1.424 h 1.76 q -0.16,1.456 -1.328,2.336 -1.168,0.88 -3.008,0.88 -2.288,0 -3.568,-1.536 -1.264,-1.552 -1.264,-4.288 0,-2.784 1.328,-4.416 1.328,-1.648 3.728,-1.648 1.696,0 2.848,0.816 1.152,0.816 1.296,2.464 z"
       style="font-style:normal;font-variant:normal;font-weight:normal;font-stretch:normal;font-size:16px;font-family:'Univers for UniS 55 Roman';-inkscape-font-specification:'Univers for UniS 55 Roman, ';fill:#ffffff;fill-opacity:1"
       id="path837" />
    <path
       d="m 74.40173,39.481413 v 11.552 h -1.6 v -11.552 z"
       style="font-style:normal;font-variant:normal;font-weight:normal;font-stretch:normal;font-size:16px;font-family:'Univers for UniS 55 Roman';-inkscape-font-specification:'Univers for UniS 55 Roman, ';fill:#ffffff;fill-opacity:1"
       id="path839" />
    <path
       d="m 81.59123,39.481413 q 1.888,0 2.704,0.944 0.816,0.944 0.816,2.224 0,1.376 -0.96,2.32 -0.96,0.928 -3.328,0.928 h -1.984 v 5.136 h -1.6 v -11.552 z m -0.656,5.072 q 1.296,0 1.888,-0.48 0.592,-0.48 0.592,-1.488 0,-0.944 -0.528,-1.376 -0.528,-0.432 -1.712,-0.432 h -2.336 v 3.776 z"
       style="font-style:normal;font-variant:normal;font-weight:normal;font-stretch:normal;font-size:16px;font-family:'Univers for UniS 55 Roman';-inkscape-font-specification:'Univers for UniS 55 Roman, ';fill:#ffffff;fill-opacity:1"
       id="path841" />
    <path
       d="m 88.39423,46.217413 v 1.216 h -4.016 v -1.216 z"
       style="font-style:normal;font-variant:normal;font-weight:normal;font-stretch:normal;font-size:16px;font-family:'Univers for UniS 55 Roman';-inkscape-font-specification:'Univers for UniS 55 Roman, ';fill:#ffffff;fill-opacity:1"
       id="path843" />
    <path
       d="m 94.80998,39.481413 q 1.888,0 2.704,0.944 0.816,0.944 0.816,2.224 0,1.376 -0.96,2.32 -0.96,0.928 -3.328,0.928 h -1.984 v 5.136 h -1.6 v -11.552 z m -0.656,5.072 q 1.296,0 1.888,-0.48 0.592,-0.48 0.592,-1.488 0,-0.944 -0.528,-1.376 -0.528,-0.432 -1.712,-0.432 h -2.336 v 3.776 z"
       style="font-style:normal;font-variant:normal;font-weight:normal;font-stretch:normal;font-size:16px;font-family:'Univers for UniS 55 Roman';-inkscape-font-specification:'Univers for UniS 55 Roman, ';fill:#ffffff;fill-opacity:1"
       id="path845" />
    <path
       d="m 103.13048,51.305413 q -1.824,0 -2.896,-1.136 -1.056,-1.152 -1.056,-3.056 0,-2.016 1.088,-3.168 1.088,-1.152 2.992,-1.152 1.856,0 2.896,1.12 1.04,1.12 1.04,3.104 0,1.968 -1.12,3.136 -1.12,1.152 -2.944,1.152 z m 2.464,-4.352 q 0,-1.44 -0.624,-2.24 -0.608,-0.816 -1.712,-0.816 -1.104,0 -1.808,0.832 -0.704,0.816 -0.704,2.256 0,1.44 0.624,2.32 0.64,0.88 1.776,0.88 1.104,0 1.776,-0.832 0.672,-0.848 0.672,-2.4 z"
       style="font-style:normal;font-variant:normal;font-weight:normal;font-stretch:normal;font-size:16px;font-family:'Univers for UniS 55 Roman';-inkscape-font-specification:'Univers for UniS 55 Roman, ';fill:#ffffff;fill-opacity:1"
       id="path847" />
    <path
       d="m 112.91173,51.305413 q -1.824,0 -2.896,-1.136 -1.056,-1.152 -1.056,-3.056 0,-2.016 1.088,-3.168 1.088,-1.152 2.992,-1.152 1.856,0 2.896,1.12 1.04,1.12 1.04,3.104 0,1.968 -1.12,3.136 -1.12,1.152 -2.944,1.152 z m 2.464,-4.352 q 0,-1.44 -0.624,-2.24 -0.608,-0.816 -1.712,-0.816 -1.104,0 -1.808,0.832 -0.704,0.816 -0.704,2.256 0,1.44 0.624,2.32 0.64,0.88 1.776,0.88 1.104,0 1.776,-0.832 0.672,-0.848 0.672,-2.4 z"
       style="font-style:normal;font-variant:normal;font-weight:normal;font-stretch:normal;font-size:16px;font-family:'Univers for UniS 55 Roman';-inkscape-font-specification:'Univers for UniS 55 Roman, ';fill:#ffffff;fill-opacity:1"
       id="path849" />
    <path
       d="m 120.86898,39.497413 v 11.536 h -1.504 v -11.536 z"
       style="font-style:normal;font-variant:normal;font-weight:normal;font-stretch:normal;font-size:16px;font-family:'Univers for UniS 55 Roman';-inkscape-font-specification:'Univers for UniS 55 Roman, ';fill:#ffffff;fill-opacity:1"
       id="path851" />
    <path
       d="m 132.55998,39.481413 q 1.888,0 2.704,0.944 0.816,0.944 0.816,2.224 0,1.376 -0.96,2.32 -0.96,0.928 -3.328,0.928 h -1.984 v 5.136 h -1.6 v -11.552 z m -0.656,5.072 q 1.296,0 1.888,-0.48 0.592,-0.48 0.592,-1.488 0,-0.944 -0.528,-1.376 -0.528,-0.432 -1.712,-0.432 h -2.336 v 3.776 z"
       style="font-style:normal;font-variant:normal;font-weight:normal;font-stretch:normal;font-size:16px;font-family:'Univers for UniS 55 Roman';-inkscape-font-specification:'Univers for UniS 55 Roman, ';fill:#ffffff;fill-opacity:1"
       id="path853" />
    <path
       d="m 139.50923,39.497413 v 4.688 q 0.384,-0.64 1.056,-0.976 0.688,-0.352 1.552,-0.352 1.184,0 1.984,0.624 0.816,0.608 0.816,2.256 v 5.296 h -1.536 v -4.864 q 0,-1.152 -0.432,-1.648 -0.432,-0.512 -1.296,-0.512 -0.816,0 -1.488,0.544 -0.656,0.544 -0.656,1.984 v 4.496 h -1.52 v -11.536 z"
       style="font-style:normal;font-variant:normal;font-weight:normal;font-stretch:normal;font-size:16px;font-family:'Univers for UniS 55 Roman';-inkscape-font-specification:'Univers for UniS 55 Roman, ';fill:#ffffff;fill-opacity:1"
       id="path855" />
    <path
       d="m 147.93798,43.001413 2.512,6.336 2.56,-6.336 h 1.632 l -3.6,8.144 -1.12,2.928 h -1.552 l 1.216,-3.072 -3.344,-8 z"
       style="font-style:normal;font-variant:normal;font-weight:normal;font-stretch:normal;font-size:16px;font-family:'Univers for UniS 55 Roman';-inkscape-font-specification:'Univers for UniS 55 Roman, ';fill:#ffffff;fill-opacity:1"
       id="path857" />
    <path
       d="m 162.04423,45.225413 h -1.536 v -0.096 q 0,-1.216 -1.552,-1.216 -0.768,0 -1.2,0.304 -0.432,0.288 -0.432,0.848 0,0.736 0.976,0.976 l 1.856,0.464 q 1.056,0.256 1.568,0.784 0.528,0.512 0.528,1.392 0,1.184 -0.896,1.888 -0.896,0.688 -2.528,0.688 -1.536,0 -2.368,-0.672 -0.816,-0.688 -0.816,-1.936 h 1.584 q 0,0.688 0.448,1.072 0.464,0.384 1.328,0.384 0.816,0 1.232,-0.352 0.416,-0.352 0.416,-0.912 0,-0.72 -0.752,-0.928 -0.752,-0.224 -1.76,-0.448 -1.024,-0.224 -1.68,-0.72 -0.656,-0.496 -0.656,-1.504 0,-1.088 0.864,-1.76 0.88,-0.672 2.272,-0.672 1.312,0 2.208,0.544 0.896,0.528 0.896,1.648 z"
       style="font-style:normal;font-variant:normal;font-weight:normal;font-stretch:normal;font-size:16px;font-family:'Univers for UniS 55 Roman';-inkscape-font-specification:'Univers for UniS 55 Roman, ';fill:#ffffff;fill-opacity:1"
       id="path859" />
    <path
       d="m 166.02823,39.513413 v 1.648 h -1.808 v -1.648 z m -0.144,3.488 v 8.032 h -1.504 v -8.032 z"
       style="font-style:normal;font-variant:normal;font-weight:normal;font-stretch:normal;font-size:16px;font-family:'Univers for UniS 55 Roman';-inkscape-font-specification:'Univers for UniS 55 Roman, ';fill:#ffffff;fill-opacity:1"
       id="path861" />
    <path
       d="m 170.17773,39.401413 v 6.88 l 3.008,-3.28 h 1.968 l -3.392,3.408 3.6,4.624 h -1.968 l -3.216,-4.336 v 4.336 h -1.488 v -11.632 z"
       style="font-style:normal;font-variant:normal;font-weight:normal;font-stretch:normal;font-size:16px;font-family:'Univers for UniS 55 Roman';-inkscape-font-specification:'Univers for UniS 55 Roman, ';fill:#ffffff;fill-opacity:1"
       id="path863" />
  </g>
</svg>
